<svg width="24" height="24" viewBox="0 0 24 24" fill="none" xmlns="http://www.w3.org/2000/svg">
<path d="M19.0879 4.95325C19.0806 4.94544 19.0784 4.93507 19.0708 4.92744C19.0632 4.91981 19.0526 4.91749 19.0447 4.91012C17.1743 3.04648 14.641 2 12 2C9.35901 2 6.82573 3.04648 4.95526 4.91012C4.94739 4.91749 4.93689 4.91975 4.9292 4.92744C4.92151 4.93513 4.91937 4.94543 4.91205 4.95325C3.51831 6.35306 2.57065 8.1342 2.18867 10.0719C1.80669 12.0095 2.00751 14.0169 2.76579 15.8405C3.52407 17.6642 4.80582 19.2225 6.44927 20.3187C8.09272 21.415 10.0242 22 12 22C13.9758 22 15.9073 21.415 17.5507 20.3187C19.1942 19.2225 20.4759 17.6642 21.2342 15.8405C21.9925 14.0169 22.1933 12.0095 21.8113 10.0719C21.4293 8.1342 20.4817 6.35306 19.0879 4.95325ZM11.9999 19.9922C10.8022 19.9918 9.61991 19.7221 8.54062 19.203C7.46132 18.6839 6.51268 17.9288 5.76495 16.9935H9.78022C10.0583 17.3077 10.4 17.5593 10.7827 17.7316C11.1653 17.904 11.5802 17.9931 11.9999 17.9931C12.4197 17.9931 12.8346 17.904 13.2172 17.7316C13.5999 17.5593 13.9416 17.3077 14.2197 16.9935H18.235C17.4873 17.9288 16.5386 18.6839 15.4593 19.203C14.38 19.7221 13.1977 19.9918 11.9999 19.9922ZM11 14.9944C11 14.7967 11.0586 14.6034 11.1685 14.439C11.2784 14.2747 11.4345 14.1465 11.6173 14.0709C11.8 13.9952 12.0011 13.9754 12.195 14.014C12.389 14.0526 12.5672 14.1478 12.7071 14.2876C12.8469 14.4274 12.9421 14.6055 12.9807 14.7994C13.0193 14.9933 12.9995 15.1942 12.9238 15.3769C12.8481 15.5595 12.72 15.7156 12.5555 15.8255C12.3911 15.9353 12.1977 15.9939 11.9999 15.9939C11.7348 15.9937 11.4806 15.8883 11.2931 15.7009C11.1057 15.5135 11.0002 15.2594 11 14.9944ZM19.4102 14.9964L19.3998 14.9944H14.9999C14.998 14.3762 14.8048 13.7739 14.4467 13.2699C14.0886 12.766 13.5832 12.3852 12.9999 12.1799V8.99696C12.9999 8.73186 12.8946 8.47762 12.7071 8.29016C12.5195 8.10271 12.2652 7.9974 11.9999 7.9974C11.7347 7.9974 11.4804 8.10271 11.2928 8.29016C11.1053 8.47762 11 8.73186 11 8.99696V12.1799C10.4167 12.3852 9.91132 12.766 9.55322 13.2699C9.19512 13.7739 9.00185 14.3762 8.99995 14.9944H4.60005L4.58973 14.9964C4.32963 14.3549 4.1547 13.6821 4.06941 12.9952H4.99995C5.26517 12.9952 5.51952 12.8899 5.70706 12.7025C5.8946 12.515 5.99995 12.2608 5.99995 11.9957C5.99995 11.7306 5.8946 11.4763 5.70706 11.2889C5.51952 11.1014 5.26517 10.9961 4.99995 10.9961H4.06941C4.2481 9.57528 4.8075 8.22912 5.68849 7.0999L6.34321 7.75434C6.43606 7.84715 6.54629 7.92077 6.6676 7.971C6.78892 8.02123 6.91894 8.04708 7.05025 8.04708C7.18155 8.04708 7.31158 8.02122 7.43289 7.971C7.5542 7.92077 7.66443 7.84715 7.75728 7.75434C7.85013 7.66153 7.92378 7.55135 7.97403 7.43009C8.02427 7.30883 8.05014 7.17886 8.05014 7.04761C8.05014 6.91636 8.02427 6.78639 7.97402 6.66513C7.92377 6.54387 7.85012 6.43369 7.75727 6.34089L7.10261 5.68651C8.23224 4.80619 9.57877 4.24719 11 4.06856V4.9987C11 5.2638 11.1053 5.51804 11.2928 5.7055C11.4804 5.89295 11.7347 5.99827 11.9999 5.99827C12.2652 5.99827 12.5195 5.89295 12.7071 5.7055C12.8946 5.51804 12.9999 5.2638 12.9999 4.9987V4.06856C14.4211 4.24719 15.7677 4.80619 16.8973 5.68651L16.2426 6.34089C16.0551 6.52832 15.9498 6.78254 15.9498 7.04761C15.9498 7.31269 16.0551 7.5669 16.2426 7.75434C16.4301 7.94177 16.6845 8.04707 16.9497 8.04708C17.2148 8.04708 17.4692 7.94178 17.6567 7.75434L18.3114 7.0999C19.1924 8.22912 19.7518 9.57528 19.9305 10.9961H18.9999C18.7347 10.9961 18.4804 11.1014 18.2928 11.2889C18.1053 11.4763 17.9999 11.7306 17.9999 11.9957C17.9999 12.2608 18.1053 12.515 18.2928 12.7025C18.4804 12.8899 18.7347 12.9952 18.9999 12.9952H19.9305C19.8452 13.6821 19.6703 14.3549 19.4102 14.9964Z" fill="#F3BA27"/>
</svg>
