<svg width="24" height="24" viewBox="0 0 24 24" fill="none" xmlns="http://www.w3.org/2000/svg">
<path d="M8.66602 16.168L11.9993 19.5013L15.3327 16.168" stroke="#F3BA27" stroke-width="2" stroke-linecap="round" stroke-linejoin="round"/>
<path d="M12 12V19.5" stroke="#F3BA27" stroke-width="2" stroke-linecap="round" stroke-linejoin="round"/>
<path d="M19.4003 17.0749C20.1248 16.5655 20.6681 15.8384 20.9514 14.9992C21.2347 14.1601 21.2431 13.2525 20.9756 12.4081C20.7081 11.5638 20.1785 10.8267 19.4637 10.3037C18.7489 9.7808 17.886 9.49925 17.0003 9.49994H15.9503C15.6997 8.52317 15.2307 7.61598 14.5787 6.84668C13.9268 6.07737 13.1088 5.46599 12.1863 5.05857C11.2639 4.65115 10.261 4.4583 9.25325 4.49454C8.24548 4.53078 7.25907 4.79517 6.36827 5.2678C5.47747 5.74043 4.7055 6.40898 4.11047 7.22314C3.51544 8.03729 3.11285 8.97582 2.93303 9.96807C2.7532 10.9603 2.80082 11.9804 3.07229 12.9516C3.34377 13.9228 3.83203 14.8198 4.50031 15.5749" stroke="#F3BA27" stroke-width="2" stroke-linecap="round" stroke-linejoin="round"/>
</svg>
