<svg width="24" height="24" viewBox="0 0 24 24" fill="none" xmlns="http://www.w3.org/2000/svg">
<path d="M16.0499 4C15.2549 3.99989 14.4717 4.18562 13.7666 4.54143C13.0615 4.89724 12.4555 5.41262 11.9999 6.04381C11.5444 5.41262 10.9383 4.89724 10.2333 4.54143C9.52818 4.18562 8.74491 3.99989 7.94992 4C6.6371 4 5.37805 4.50525 4.44974 5.40461C3.52144 6.30397 2.99992 7.52376 2.99992 8.79564C2.99992 13.7831 8.84992 17.8969 11.9999 20C15.1499 17.8969 20.9999 13.7831 20.9999 8.79564C20.9999 8.16587 20.8719 7.54226 20.6231 6.96043C20.3744 6.37859 20.0097 5.84993 19.5501 5.40461C19.0904 4.95929 18.5448 4.60605 17.9442 4.36505C17.3436 4.12404 16.7 4 16.0499 4Z" fill="#F3BA27" stroke="#F3BA27" stroke-width="2" stroke-linejoin="round"/>
</svg>
