<svg width="24" height="24" viewBox="0 0 24 24" fill="none" xmlns="http://www.w3.org/2000/svg">
<path d="M16.2413 4.34977C15.4749 3.71943 14.5774 3.26813 13.6143 3.02881C12.6513 2.78949 11.647 2.76818 10.6746 2.96644C9.37994 3.22796 8.19212 3.86817 7.26186 4.80584C6.33161 5.74351 5.70085 6.93638 5.44963 8.23311C5.26616 9.20537 5.2995 10.2061 5.54726 11.164C5.79502 12.122 6.25109 13.0134 6.88296 13.7748C7.46936 14.4365 7.80549 15.2827 7.83296 16.1664V18.6664C7.83296 19.3295 8.09635 19.9654 8.56519 20.4342C9.03403 20.903 9.66992 21.1664 10.333 21.1664H13.6663C14.3293 21.1664 14.9652 20.903 15.4341 20.4342C15.9029 19.9654 16.1663 19.3295 16.1663 18.6664V16.3248C16.1943 15.3491 16.5527 14.4118 17.183 13.6664C18.2872 12.3004 18.8078 10.5538 18.6314 8.80613C18.4551 7.05847 17.5962 5.45101 16.2413 4.33311V4.34977ZM14.4996 18.6664C14.4996 18.8875 14.4118 19.0994 14.2555 19.2557C14.0993 19.412 13.8873 19.4998 13.6663 19.4998H10.333C10.1119 19.4998 9.89998 19.412 9.7437 19.2557C9.58742 19.0994 9.49963 18.8875 9.49963 18.6664V17.8331H14.4996V18.6664ZM15.8913 12.6331C15.0534 13.6269 14.5645 14.8681 14.4996 16.1664H12.833V13.6664C12.833 13.4454 12.7452 13.2335 12.5889 13.0772C12.4326 12.9209 12.2206 12.8331 11.9996 12.8331C11.7786 12.8331 11.5667 12.9209 11.4104 13.0772C11.2541 13.2335 11.1663 13.4454 11.1663 13.6664V16.1664H9.49963C9.47764 14.8899 9.00541 13.6621 8.16629 12.6998C7.61266 12.0364 7.24037 11.241 7.08572 10.3909C6.93107 9.54083 6.99934 8.6652 7.28387 7.84938C7.5684 7.03356 8.05948 6.30539 8.70923 5.73588C9.35898 5.16636 10.1452 4.77494 10.9913 4.59977C11.7184 4.45006 12.4698 4.46414 13.1908 4.641C13.9118 4.81785 14.5843 5.15304 15.1597 5.62223C15.735 6.09142 16.1986 6.68284 16.5169 7.35354C16.8351 8.02424 17 8.75739 16.9996 9.49977C17.0058 10.6413 16.6139 11.7493 15.8913 12.6331Z" fill="#F3BA27" stroke="#F3BA27" stroke-width="0.4"/>
</svg>
