<svg width="24" height="24" viewBox="0 0 24 24" fill="none" xmlns="http://www.w3.org/2000/svg">
<path d="M17.0911 3.65562C16.1713 2.96801 15.0943 2.47572 13.9385 2.21465C12.7827 1.95359 11.5774 1.93035 10.4105 2.14662C8.85676 2.43189 7.43124 3.13026 6.31484 4.15312C5.19843 5.17597 4.44145 6.47721 4.13995 7.89174C3.91978 8.95233 3.95979 10.044 4.25713 11.0889C4.55446 12.1339 5.1018 13.1063 5.86011 13.9368C6.56386 14.6587 6.96724 15.5818 7.00021 16.5458V19.2729C7.00021 19.9962 7.31631 20.6898 7.87897 21.2012C8.44163 21.7127 9.20477 22 10.0005 22H14.0008C14.7966 22 15.5597 21.7127 16.1224 21.2012C16.685 20.6898 17.0011 19.9962 17.0011 19.2729V16.7185C17.0347 15.6542 17.4649 14.6317 18.2212 13.8187C19.5465 12.3285 20.1712 10.4232 19.9596 8.51681C19.748 6.61039 18.7171 4.8569 17.0911 3.63744V3.65562ZM15.0009 19.2729C15.0009 19.514 14.8956 19.7452 14.708 19.9157C14.5205 20.0862 14.2661 20.1819 14.0008 20.1819H10.0005C9.73525 20.1819 9.48087 20.0862 9.29332 19.9157C9.10576 19.7452 9.0004 19.514 9.0004 19.2729V18.3638H15.0009V19.2729ZM16.6711 12.6915C15.6655 13.7756 15.0788 15.1295 15.0009 16.5458H13.0008V13.8187C13.0008 13.5776 12.8954 13.3464 12.7078 13.1759C12.5203 13.0054 12.2659 12.9096 12.0007 12.9096C11.7354 12.9096 11.4811 13.0054 11.2935 13.1759C11.1059 13.3464 11.0006 13.5776 11.0006 13.8187V16.5458H9.0004C8.97401 15.1532 8.40729 13.8139 7.40025 12.7642C6.73583 12.0406 6.28904 11.1728 6.10344 10.2456C5.91785 9.31826 5.99977 8.36309 6.34124 7.47315C6.68271 6.58322 7.27206 5.7889 8.05183 5.16765C8.8316 4.54639 9.77518 4.11941 10.7906 3.92833C11.6632 3.76502 12.5649 3.78038 13.4302 3.9733C14.2955 4.16622 15.1026 4.53186 15.7931 5.04368C16.4835 5.55549 17.0399 6.20063 17.4218 6.93226C17.8038 7.66389 18.0017 8.46365 18.0012 9.27347C18.0086 10.5187 17.5383 11.7274 16.6711 12.6915Z" fill="#F3BA27"/>
</svg>
