<svg width="24" height="24" viewBox="0 0 24 24" fill="none" xmlns="http://www.w3.org/2000/svg">
<path d="M21.1673 4.50057C20.3693 5.06347 19.4857 5.49399 18.5507 5.77557C18.0488 5.19849 17.3818 4.78948 16.6398 4.60384C15.8979 4.4182 15.1169 4.4649 14.4024 4.73761C13.6879 5.01033 13.0744 5.4959 12.6448 6.12866C12.2153 6.76143 11.9904 7.51085 12.0007 8.27557V9.1089C10.5362 9.14687 9.08505 8.82208 7.77649 8.16344C6.46794 7.5048 5.34258 6.53276 4.50065 5.3339C4.50065 5.3339 1.16732 12.8339 8.66732 16.1672C6.95109 17.3322 4.90662 17.9163 2.83398 17.8339C10.334 22.0006 19.5007 17.8339 19.5007 8.25057C19.4999 8.01845 19.4776 7.7869 19.434 7.5589C20.2845 6.72014 20.8847 5.66116 21.1673 4.50057V4.50057Z" stroke="#F3BA27" stroke-width="2" stroke-linecap="round" stroke-linejoin="round"/>
</svg>
