<svg width="18" height="18" viewBox="0 0 18 18" fill="none" xmlns="http://www.w3.org/2000/svg">
<path d="M2.54073 10.6631L7.43774 10.6629C7.14676 11.0151 6.95904 11.4558 6.92091 11.9386L6.91372 12.1215V15.8715C6.91372 16.4256 7.11039 16.9338 7.43774 17.3301L7.33038 17.3307C4.47958 17.3307 2.37711 16.4372 1.09197 14.6336C0.815339 14.2454 0.666668 13.7805 0.666668 13.3038V12.5371C0.666668 11.5021 1.50572 10.6631 2.54073 10.6631ZM11.2887 8.57981H13.7887C14.3281 8.57981 14.7717 8.9897 14.825 9.51497L14.8304 9.62147L14.83 10.6628L15.8721 10.6631C16.6775 10.6631 17.3304 11.3161 17.3304 12.1215V15.8715C17.3304 16.6769 16.6775 17.3298 15.8721 17.3298H9.20538C8.39997 17.3298 7.74705 16.6769 7.74705 15.8715V12.1215C7.74705 11.3161 8.39997 10.6631 9.20538 10.6631L10.2467 10.6628L10.2471 9.62147C10.2471 9.08213 10.6569 8.63853 11.1822 8.58518L11.2887 8.57981H13.7887H11.2887ZM13.5804 9.82981H11.4971L11.4967 10.6628H13.58L13.5804 9.82981ZM7.33038 0.666992C9.63157 0.666992 11.4971 2.53247 11.4971 4.83366C11.4971 7.13485 9.63157 9.00033 7.33038 9.00033C5.0292 9.00033 3.16372 7.13485 3.16372 4.83366C3.16372 2.53247 5.0292 0.666992 7.33038 0.666992Z" fill="#6161CF"/>
</svg>
