<svg width="12" height="12" viewBox="0 0 12 12" fill="none" xmlns="http://www.w3.org/2000/svg">
<path d="M2.35355 3.35358L6.00005 7.00008L9.64655 3.35358C9.74031 3.25984 9.86747 3.20718 10 3.20718C10.1326 3.20718 10.2598 3.25984 10.3535 3.35358L10.6465 3.64658C10.7403 3.74034 10.7929 3.86749 10.7929 4.00008C10.7929 4.13266 10.7403 4.25981 10.6465 4.35358L6.35355 8.64658C6.25978 8.74031 6.13263 8.79297 6.00005 8.79297C5.86747 8.79297 5.74031 8.74031 5.64655 8.64658L1.35355 4.35358C1.25981 4.25981 1.20715 4.13266 1.20715 4.00008C1.20715 3.86749 1.25981 3.74034 1.35355 3.64658L1.64655 3.35358C1.74031 3.25984 1.86746 3.20718 2.00005 3.20718C2.13263 3.20718 2.25978 3.25984 2.35355 3.35358Z" fill="inherit"/>
</svg>
