<svg width="8" height="14" viewBox="0 0 8 14" fill="none" xmlns="http://www.w3.org/2000/svg">
<path d="M7.52864 2.1379L2.66665 6.9999L7.52864 11.8619C7.65363 11.9869 7.72384 12.1565 7.72384 12.3332C7.72384 12.51 7.65363 12.6795 7.52864 12.8046L7.13798 13.1952C7.01296 13.3202 6.84342 13.3904 6.66665 13.3904C6.48987 13.3904 6.32033 13.3202 6.19531 13.1952L0.471314 7.47123C0.346333 7.34621 0.276123 7.17668 0.276123 6.9999C0.276123 6.82312 0.346333 6.65358 0.471314 6.52857L6.19531 0.804566C6.32033 0.679585 6.48987 0.609375 6.66665 0.609375C6.84342 0.609375 7.01296 0.679585 7.13798 0.804566L7.52864 1.19523C7.65363 1.32025 7.72384 1.48979 7.72384 1.66657C7.72384 1.84334 7.65363 2.01288 7.52864 2.1379Z" fill="#2084E1"/>
</svg>
