<svg width="48" height="49" viewBox="0 0 48 49" fill="none" xmlns="http://www.w3.org/2000/svg">
<mask id="mask0" mask-type="alpha" maskUnits="userSpaceOnUse" x="0" y="0" width="48" height="49">
<rect width="48" height="49" rx="6" fill="#C4C4C4"/>
</mask>
<g mask="url(#mask0)">
<rect y="1" width="48" height="48" rx="6" fill="#E9E9E9"/>
<path d="M30.6112 27.075L24.5 33.4125L18.3888 27.075C14.2545 27.4563 11 31.0125 11 35.4V38C11 39.6562 12.2958 41 13.8929 41H35.1071C36.7042 41 38 39.6562 38 38V35.4C38 31.0125 34.7455 27.4563 30.6112 27.075ZM12.9286 21C14.5739 21 16.0504 20.2812 17.0991 19.1438C18.0092 22.5125 20.9563 25 24.5 25C28.7609 25 32.2143 21.4187 32.2143 17C32.2143 12.5813 28.7609 9 24.5 9C21.4625 9 18.8589 10.8375 17.5993 13.4875C16.5507 11.9875 14.8571 11 12.9286 11C12.9286 13.0875 13.9592 14.925 15.5261 16C13.9592 17.075 12.9286 18.9125 12.9286 21ZM21.6071 15H27.3929C28.4596 15 29.3214 15.8938 29.3214 17H19.6786C19.6786 15.8938 20.5404 15 21.6071 15Z" fill="inherit"/>
</g>
</svg>
