<svg width="20" height="20" viewBox="0 0 20 20" fill="none" xmlns="http://www.w3.org/2000/svg">
<path d="M18.9995 9.11871L19 13.6437C19 14.8969 17.9714 15.9215 16.6733 15.9957L16.5223 16H3.47831C2.16061 16 1.08317 15.0218 1.00517 13.7873L1.00065 13.6437L1 9.11871H18.9995ZM15.634 12.1222H13.3816L13.2899 12.128C12.9601 12.1706 12.7059 12.4394 12.7059 12.7648C12.7059 13.0901 12.9601 13.359 13.2899 13.4015L13.3816 13.4074H15.634L15.7257 13.4015C16.0555 13.359 16.3097 13.0901 16.3097 12.7648C16.3097 12.4394 16.0555 12.1706 15.7257 12.128L15.634 12.1222ZM16.5223 4C17.84 4 18.9175 4.97825 18.9955 6.21275L19 6.35629L18.9995 7.83346H1L1.00065 6.35629C1.00065 5.10314 2.02929 4.07848 3.32737 4.0043L3.47831 4H16.5223Z" fill="white"/>
</svg>
