<svg width="12" height="12" viewBox="0 0 12 12" fill="none" xmlns="http://www.w3.org/2000/svg">
<path d="M5.17747 6.82344C5.41664 7.05094 5.41664 7.42428 5.17747 7.65178C4.94997 7.87928 4.57664 7.87928 4.34914 7.65178C3.80277 7.1046 3.4959 6.36295 3.4959 5.58969C3.4959 4.81644 3.80277 4.07479 4.34914 3.52761L6.41414 1.46261C6.96132 0.916249 7.70297 0.609375 8.47622 0.609375C9.24947 0.609375 9.99112 0.916249 10.5383 1.46261C11.0847 2.00979 11.3915 2.75144 11.3915 3.52469C11.3915 4.29795 11.0847 5.0396 10.5383 5.58678L9.66914 6.45595C9.67497 5.97761 9.59914 5.49928 9.4358 5.04428L9.70997 4.76428C9.8735 4.60251 10.0033 4.40992 10.0919 4.19765C10.1805 3.98537 10.2261 3.75763 10.2261 3.52761C10.2261 3.29759 10.1805 3.06985 10.0919 2.85758C10.0033 2.6453 9.8735 2.45271 9.70997 2.29094C9.5482 2.12741 9.35561 1.99759 9.14334 1.90899C8.93106 1.82039 8.70332 1.77477 8.4733 1.77477C8.24328 1.77477 8.01554 1.82039 7.80327 1.90899C7.59099 1.99759 7.3984 2.12741 7.23664 2.29094L5.17747 4.35011C5.01394 4.51188 4.88412 4.70447 4.79551 4.91674C4.70691 5.12902 4.66129 5.35676 4.66129 5.58678C4.66129 5.8168 4.70691 6.04454 4.79551 6.25681C4.88412 6.46909 5.01394 6.66168 5.17747 6.82344ZM6.82247 4.35011C7.04997 4.12261 7.4233 4.12261 7.6508 4.35011C8.19716 4.89729 8.50404 5.63894 8.50404 6.41219C8.50404 7.18545 8.19716 7.92709 7.6508 8.47428L5.5858 10.5393C5.03862 11.0856 4.29697 11.3925 3.52372 11.3925C2.75047 11.3925 2.00882 11.0856 1.46164 10.5393C0.915273 9.99209 0.608398 9.25045 0.608398 8.47719C0.608398 7.70394 0.915273 6.96229 1.46164 6.41511L2.3308 5.54595C2.32497 6.02428 2.4008 6.50261 2.56414 6.96344L2.28997 7.23761C2.12644 7.39938 1.99662 7.59197 1.90801 7.80424C1.81941 8.01652 1.77379 8.24426 1.77379 8.47428C1.77379 8.7043 1.81941 8.93204 1.90801 9.14431C1.99662 9.35659 2.12644 9.54918 2.28997 9.71095C2.45173 9.87448 2.64433 10.0043 2.8566 10.0929C3.06887 10.1815 3.29661 10.2271 3.52664 10.2271C3.75666 10.2271 3.9844 10.1815 4.19667 10.0929C4.40894 10.0043 4.60154 9.87448 4.7633 9.71095L6.82247 7.65178C6.986 7.49001 7.11582 7.29742 7.20442 7.08515C7.29303 6.87287 7.33865 6.64513 7.33865 6.41511C7.33865 6.18509 7.29303 5.95735 7.20442 5.74508C7.11582 5.5328 6.986 5.34021 6.82247 5.17844C6.76581 5.12536 6.72065 5.06121 6.68978 4.98997C6.65891 4.91873 6.64298 4.84192 6.64298 4.76428C6.64298 4.68664 6.65891 4.60982 6.68978 4.53858C6.72065 4.46735 6.76581 4.4032 6.82247 4.35011Z" fill="#595959"/>
</svg>
