<svg width="12" height="12" viewBox="0 0 12 12" fill="none" xmlns="http://www.w3.org/2000/svg">
<path d="M2.35367 3.35358L6.00017 7.00008L9.64667 3.35358C9.74043 3.25984 9.86759 3.20718 10.0002 3.20718C10.1328 3.20718 10.2599 3.25984 10.3537 3.35358L10.6467 3.64658C10.7404 3.74034 10.7931 3.86749 10.7931 4.00008C10.7931 4.13266 10.7404 4.25981 10.6467 4.35358L6.35367 8.64658C6.2599 8.74031 6.13275 8.79297 6.00017 8.79297C5.86759 8.79297 5.74043 8.74031 5.64667 8.64658L1.35367 4.35358C1.25993 4.25981 1.20728 4.13266 1.20728 4.00008C1.20728 3.8675 1.25993 3.74034 1.35367 3.64658L1.64667 3.35358C1.74043 3.25984 1.86759 3.20718 2.00017 3.20718C2.13275 3.20718 2.2599 3.25984 2.35367 3.35358Z" fill="#1D1D1D"/>
</svg>
