<svg width="40" height="40" viewBox="0 0 40 40" fill="none" xmlns="http://www.w3.org/2000/svg">
<path d="M19.9999 3.33333C29.2049 3.33333 36.6666 10.7967 36.6666 20C36.6666 29.2033 29.2049 36.6667 19.9999 36.6667C10.7949 36.6667 3.33325 29.2033 3.33325 20C3.33325 10.7967 10.7949 3.33333 19.9999 3.33333ZM19.9999 6.11166C12.3416 6.11166 6.11159 12.3417 6.11159 20C6.11159 27.6583 12.3416 33.8883 19.9999 33.8883C27.6583 33.8883 33.8883 27.6583 33.8883 20C33.8883 12.3417 27.6583 6.11166 19.9999 6.11166ZM18.7499 10C19.3824 10 19.9057 10.4706 19.9885 11.0805L19.9999 11.25V20H25.4166C26.1066 20 26.6666 20.56 26.6666 21.25C26.6666 21.8825 26.196 22.4058 25.5861 22.4886L25.4166 22.5H18.7499C18.1174 22.5 17.5942 22.0294 17.5113 21.4195L17.4999 21.25V11.25C17.4999 10.56 18.0599 10 18.7499 10Z" fill="#DA2E2E"/>
</svg>
