<svg width="18" height="12" viewBox="0 0 18 12" fill="none" xmlns="http://www.w3.org/2000/svg">
<path fill-rule="evenodd" clip-rule="evenodd" d="M13.3034 1.13229C12.0149 0.473201 10.5527 0.101562 9 0.101562C5.02344 0.101562 1.64062 2.53906 0.25 6C1.16889 8.28689 2.95761 10.1269 5.2127 11.1122L6.73797 9.23072C5.70361 8.51869 5.02344 7.33434 5.02344 6C5.02344 3.83594 6.8125 2.06641 9 2.06641C10.038 2.06641 10.9862 2.46481 11.6962 3.11472L13.3034 1.13229ZM10.6978 4.34622C10.2643 3.91132 9.66248 3.64063 9 3.64063C7.6875 3.64063 6.61328 4.70312 6.61328 6C6.61328 6.83933 7.06323 7.5805 7.73653 7.99899L10.6978 4.34622ZM11.3339 6.49317L9.997 8.14219C10.6692 7.83396 11.1747 7.22497 11.3339 6.49317ZM8.56389 9.90994C8.70717 9.92557 8.85268 9.93359 9 9.93359C11.1875 9.93359 12.9766 8.16406 12.9766 6C12.9766 5.55627 12.9013 5.12914 12.7629 4.73044L14.8651 2.1374C16.1346 3.14458 17.1363 4.47263 17.75 6C16.3594 9.46094 12.9766 11.8984 9 11.8984C8.35046 11.8984 7.71675 11.8334 7.10499 11.7095L8.56389 9.90994Z" fill="#949494"/>
</svg>
