<svg width="18" height="12" viewBox="0 0 18 12" fill="none" xmlns="http://www.w3.org/2000/svg">
<path d="M9 0.101562C5.02344 0.101562 1.64062 2.53906 0.25 6C1.64062 9.46094 5.02344 11.8984 9 11.8984C12.9766 11.8984 16.3594 9.46094 17.75 6C16.3594 2.53906 12.9766 0.101562 9 0.101562ZM9 9.93359C6.8125 9.93359 5.02344 8.16406 5.02344 6C5.02344 3.83594 6.8125 2.06641 9 2.06641C11.1875 2.06641 12.9766 3.83594 12.9766 6C12.9766 8.16406 11.1875 9.93359 9 9.93359ZM9 3.64063C7.6875 3.64063 6.61328 4.70312 6.61328 6C6.61328 7.29688 7.6875 8.35938 9 8.35938C10.3125 8.35938 11.3867 7.29688 11.3867 6C11.3867 4.70312 10.3125 3.64063 9 3.64063Z" fill="#949494"/>
</svg>
