<svg width="24" height="24" viewBox="0 0 24 24" fill="none" xmlns="http://www.w3.org/2000/svg">
<path d="M6 8H7.33333H18" stroke="#2084E1" stroke-width="1.5" stroke-linecap="round" stroke-linejoin="round"/>
<path d="M9.14286 8V6.4C9.14286 6.0287 9.29337 5.6726 9.56128 5.41005C9.82919 5.1475 10.1925 5 10.5714 5H13.4286C13.8075 5 14.1708 5.1475 14.4387 5.41005C14.7066 5.6726 14.8571 6.0287 14.8571 6.4V8M17 8V16.6C17 16.9713 16.8495 17.3274 16.5816 17.5899C16.3137 17.8525 15.9503 18 15.5714 18H8.42857C8.04969 18 7.68633 17.8525 7.41842 17.5899C7.15051 17.3274 7 16.9713 7 16.6V8H17Z" stroke="#2084E1" stroke-width="1.5" stroke-linecap="round" stroke-linejoin="round"/>
<path d="M13.5928 11V15" stroke="#2084E1" stroke-width="1.5" stroke-linecap="round" stroke-linejoin="round"/>
<path d="M10.4653 11V15" stroke="#2084E1" stroke-width="1.5" stroke-linecap="round" stroke-linejoin="round"/>
</svg>
