<svg width="24" height="24" viewBox="0 0 24 24" fill="none" xmlns="http://www.w3.org/2000/svg">
<path d="M12 16C14.2091 16 16 14.2091 16 12C16 9.79086 14.2091 8 12 8C9.79086 8 8 9.79086 8 12C8 14.2091 9.79086 16 12 16Z" stroke="white" stroke-width="1.5" stroke-linecap="round" stroke-linejoin="round"/>
<path d="M12 10V12L13 13" stroke="white" stroke-width="1.5" stroke-linecap="round" stroke-linejoin="round"/>
<path d="M14.9867 15.4045L14.7547 17.8418C14.7248 18.1591 14.572 18.4542 14.3265 18.6686C14.081 18.883 13.7607 19.0013 13.4287 19H10.558C10.2261 19.0013 9.90571 18.883 9.6602 18.6686C9.4147 18.4542 9.26192 18.1591 9.23204 17.8418L9 15.4045M9.00663 8.59546L9.23867 6.15819C9.26845 5.84197 9.42028 5.54785 9.66439 5.33356C9.90849 5.11928 10.2272 5.00031 10.558 5.00001H13.442C13.7739 4.99872 14.0943 5.11697 14.3398 5.33141C14.5853 5.54585 14.7381 5.84087 14.768 6.15819L15 8.59546" stroke="white" stroke-width="1.5" stroke-linecap="round" stroke-linejoin="round"/>
</svg>
