<svg width="24" height="24" viewBox="0 0 24 24"  xmlns="http://www.w3.org/2000/svg">
<path d="M15.6466 16.6464L12.0001 12.9999L8.35357 16.6464C8.25981 16.7402 8.13266 16.7928 8.00007 16.7928C7.86749 16.7928 7.74034 16.7402 7.64657 16.6464L7.35357 16.3534C7.25984 16.2597 7.20718 16.1325 7.20718 15.9999C7.20718 15.8673 7.25984 15.7402 7.35357 15.6464L11.6466 11.3534C11.7403 11.2597 11.8675 11.207 12.0001 11.207C12.1327 11.207 12.2598 11.2597 12.3536 11.3534L16.6466 15.6464C16.7403 15.7402 16.793 15.8673 16.793 15.9999C16.793 16.1325 16.7403 16.2597 16.6466 16.3534L16.3536 16.6464C16.2598 16.7402 16.1327 16.7928 16.0001 16.7928C15.8675 16.7928 15.7403 16.7402 15.6466 16.6464Z" />
</svg>
