<svg width="16" height="22" viewBox="0 0 16 22" fill="none" xmlns="http://www.w3.org/2000/svg">
<path d="M5.37101 21.3129C5.25582 21.313 5.142 21.2879 5.03756 21.2393C4.93312 21.1907 4.84059 21.1199 4.76647 21.0317C4.69234 20.9435 4.63843 20.8402 4.6085 20.7289C4.57858 20.6177 4.57338 20.5013 4.59327 20.3878V20.3831L5.80112 13.7504H1.12484C0.995035 13.7504 0.867891 13.7137 0.758109 13.6444C0.648326 13.5751 0.560391 13.4762 0.504474 13.3591C0.448557 13.242 0.426943 13.1114 0.442132 12.9825C0.457321 12.8536 0.508692 12.7316 0.590304 12.6307L10.0078 0.988709C10.115 0.852637 10.2638 0.75542 10.4314 0.711923C10.5991 0.668427 10.7764 0.681046 10.9362 0.74785C11.0961 0.814654 11.2296 0.931967 11.3165 1.08185C11.4033 1.23173 11.4387 1.40593 11.4171 1.57781C11.4171 1.5907 11.4137 1.60316 11.4116 1.61605L10.1994 8.25043H14.8748C15.0046 8.25044 15.1318 8.2872 15.2416 8.35645C15.3513 8.4257 15.4393 8.52462 15.4952 8.64176C15.5511 8.75889 15.5727 8.88947 15.5575 9.01838C15.5424 9.14728 15.491 9.26926 15.4094 9.37019L5.99062 21.0121C5.91661 21.1057 5.82246 21.1813 5.71518 21.2333C5.6079 21.2854 5.49026 21.3126 5.37101 21.3129Z" fill="#F3BA27"/>
</svg>
