<svg width="24" height="24" viewBox="0 0 24 24" fill="none" xmlns="http://www.w3.org/2000/svg">
<path d="M16.9999 9C16.9999 9.55228 16.5522 10 15.9999 10C15.487 10 15.0644 9.61396 15.0066 9.11662L14.9999 9L14.9999 7C14.9999 5.34315 13.6567 4 11.9999 4C10.4022 4 9.09622 5.24892 9.00497 6.82373L8.99988 7L8.99988 9C8.99988 9.55228 8.55216 10 7.99988 10C7.48704 10 7.06437 9.61396 7.0066 9.11662L6.99988 9L6.99988 7C6.99988 4.23858 9.23845 2 11.9999 2C14.6886 2 16.8817 4.12231 16.9953 6.78311L16.9999 7L16.9999 9ZM16.9999 17C16.9999 19.7614 14.7613 22 11.9999 22C9.31112 22 7.11806 19.8777 7.0045 17.2169L6.99988 17L6.99988 15C6.99988 14.4477 7.44759 14 7.99988 14C8.51271 14 8.93538 14.386 8.99315 14.8834L8.99988 15L8.99988 17C8.99988 18.6569 10.343 20 11.9999 20C13.5976 20 14.9035 18.7511 14.9948 17.1763L14.9999 17L14.9999 15C14.9999 14.4477 15.4476 14 15.9999 14C16.5127 14 16.9354 14.386 16.9931 14.8834L16.9999 15L16.9999 17ZM12.9999 7L12.9999 17C12.9999 17.5523 12.5522 18 11.9999 18C11.487 18 11.0644 17.614 11.0066 17.1166L10.9999 17L10.9999 7C10.9999 6.44772 11.4476 6 11.9999 6C12.5127 6 12.9354 6.38604 12.9931 6.88338L12.9999 7L12.9999 17L12.9999 7Z" fill="#2084E1"/>
</svg>
