<svg width="32" height="32" viewBox="0 0 32 32" fill="none" xmlns="http://www.w3.org/2000/svg">
<path d="M16.0001 29.333C17.4667 29.333 18.6667 28.133 18.6667 26.6663H13.3334C13.3334 27.3736 13.6144 28.0519 14.1145 28.552C14.6145 29.0521 15.2928 29.333 16.0001 29.333ZM24.0001 21.333V14.6663C24.0001 10.573 21.8134 7.14634 18.0001 6.23967V5.33301C18.0001 4.22634 17.1067 3.33301 16.0001 3.33301C14.8934 3.33301 14.0001 4.22634 14.0001 5.33301V6.23967C10.1734 7.14634 8.00007 10.5597 8.00007 14.6663V21.333L6.28007 23.053C5.44007 23.893 6.02674 25.333 7.2134 25.333H24.7734C25.9601 25.333 26.5601 23.893 25.7201 23.053L24.0001 21.333Z" fill="#595959"/>
</svg>
