<svg width="14" height="18" viewBox="0 0 14 18" fill="inherit"  xmlns="http://www.w3.org/2000/svg">
<path d="M11.7941 10.6665C12.8297 10.6665 13.6691 11.506 13.6691 12.5415V13.2957C13.6691 14.2071 13.2713 15.0731 12.5798 15.6668C11.2752 16.7868 9.40827 17.3341 6.99994 17.3341C4.59202 17.3341 2.72634 16.787 1.42395 15.6672C0.733436 15.0736 0.336224 14.2082 0.336224 13.2976V12.5415C0.336224 11.506 1.17569 10.6665 2.21122 10.6665H11.7941ZM6.91541 0.672698L7.00022 0.666992C7.31663 0.666992 7.57812 0.902121 7.61951 1.20718L7.62522 1.29199L7.62456 1.91616L10.5416 1.91658C11.5771 1.91658 12.4166 2.75605 12.4166 3.79158V7.54541C12.4166 8.58094 11.5771 9.42041 10.5416 9.42041H3.45827C2.42274 9.42041 1.58327 8.58094 1.58327 7.54541V3.79158C1.58327 2.75605 2.42274 1.91658 3.45827 1.91658L6.37456 1.91616L6.37522 1.29199C6.37522 0.975579 6.61034 0.714083 6.91541 0.672698L7.00022 0.666992L6.91541 0.672698ZM5.12435 4.41658C4.54938 4.41658 4.08327 4.88269 4.08327 5.45765C4.08327 6.03262 4.54938 6.49873 5.12435 6.49873C5.69932 6.49873 6.16542 6.03262 6.16542 5.45765C6.16542 4.88269 5.69932 4.41658 5.12435 4.41658ZM8.86829 4.41658C8.29332 4.41658 7.82722 4.88269 7.82722 5.45765C7.82722 6.03262 8.29332 6.49873 8.86829 6.49873C9.44326 6.49873 9.90937 6.03262 9.90937 5.45765C9.90937 4.88269 9.44326 4.41658 8.86829 4.41658Z" fill-rule="evenodd" fill="inherit"/>
</svg>
