<svg width="24" height="24" viewBox="0 0 24 24" fill="none" xmlns="http://www.w3.org/2000/svg">
<path d="M21.9883 10.9945L21.9888 16.2756C21.9888 17.7381 20.8471 18.934 19.4063 19.0206L19.2388 19.0256H4.76097C3.29844 19.0256 2.10257 17.8839 2.01599 16.4431L2.01097 16.2756L2.01025 10.9945H21.9883ZM18.2528 14.4998H15.7528L15.6511 14.5066C15.285 14.5563 15.0028 14.8701 15.0028 15.2498C15.0028 15.6295 15.285 15.9433 15.6511 15.993L15.7528 15.9998H18.2528L18.3546 15.993C18.7207 15.9433 19.0028 15.6295 19.0028 15.2498C19.0028 14.8701 18.7207 14.5563 18.3546 14.5066L18.2528 14.4998ZM19.2388 5.02051C20.7013 5.02051 21.8972 6.16221 21.9838 7.60299L21.9888 7.77051L21.9883 9.49451H2.01025L2.01097 7.77051C2.01097 6.30798 3.15268 5.1121 4.59345 5.02553L4.76097 5.02051H19.2388Z" fill="inherit"/>
</svg>
