<svg width="18" height="18" viewBox="0 0 18 18" fill="none" xmlns="http://www.w3.org/2000/svg">
<path d="M9 1.50073C10.2813 1.50073 11.4084 2.3116 11.8285 3.50055C11.9665 3.8911 11.7617 4.31957 11.3712 4.45757C11.0085 4.58571 10.6132 4.41833 10.4481 4.08107L10.4142 4.00028C10.2043 3.40626 9.64061 3.00073 9 3.00073C8.20964 3.00073 7.56212 3.61232 7.50489 4.38807L7.50078 4.49996L7.50075 5.99923L13.3125 5.99996C14.2056 5.99996 14.9367 6.69383 14.9961 7.57192L15 7.68746V14.8097C15 15.7028 14.3061 16.4339 13.428 16.4933L13.3125 16.4972H4.6875C3.79435 16.4972 3.06327 15.8033 3.00389 14.9252L3 14.8097V7.68746C3 6.79431 3.69387 6.06322 4.57196 6.00385L4.6875 5.99996L6.00075 5.99923L6.00078 4.49996C6.00078 2.84353 7.34358 1.50073 9 1.50073ZM9 10.1246C8.37925 10.1246 7.87604 10.6278 7.87604 11.2486C7.87604 11.8693 8.37925 12.3725 9 12.3725C9.62075 12.3725 10.124 11.8693 10.124 11.2486C10.124 10.6278 9.62075 10.1246 9 10.1246Z" fill="#DA2E2E"/>
</svg>
