<svg width="20" height="20" viewBox="0 0 20 20" fill="none" xmlns="http://www.w3.org/2000/svg">
<path d="M9.5 4H4.44444C4.06135 4 3.69395 4.15218 3.42307 4.42307C3.15218 4.69395 3 5.06135 3 5.44444V15.5556C3 15.9386 3.15218 16.306 3.42307 16.5769C3.69395 16.8478 4.06135 17 4.44444 17H14.5556C14.9386 17 15.306 16.8478 15.5769 16.5769C15.8478 16.306 16 15.9386 16 15.5556V10.5" stroke="#2084E1" stroke-width="1.5" stroke-linecap="round" stroke-linejoin="round"/>
<path d="M14.4356 3.43999C14.7173 3.15827 15.0994 3 15.4978 3C15.8962 3 16.2783 3.15827 16.56 3.43999C16.8417 3.72171 17 4.1038 17 4.50221C17 4.90062 16.8417 5.28272 16.56 5.56443L9.8326 12.2919L7 13L7.70815 10.1674L14.4356 3.43999Z" stroke="#2084E1" stroke-width="1.5" stroke-linecap="round" stroke-linejoin="round"/>
</svg>
