<svg width="20" height="20" viewBox="0 0 20 20" fill="none" xmlns="http://www.w3.org/2000/svg">
<path d="M12.4345 6.7582L14.8928 4.36662M16.2976 3L14.8928 4.36662L16.2976 3ZM9.54763 9.5666C9.9103 9.91473 10.1986 10.3292 10.3959 10.7862C10.5933 11.2431 10.6958 11.7336 10.6975 12.2292C10.6992 12.7249 10.6001 13.2159 10.4059 13.6742C10.2117 14.1324 9.92626 14.5488 9.56599 14.8992C9.20573 15.2497 8.77775 15.5274 8.30672 15.7163C7.83568 15.9052 7.33088 16.0016 6.82139 16C6.3119 15.9983 5.80778 15.8986 5.33805 15.7067C4.86833 15.5147 4.44228 15.2342 4.08443 14.8814C3.38073 14.1726 2.99134 13.2232 3.00015 12.2379C3.00895 11.2525 3.41523 10.3099 4.13149 9.61307C4.84775 8.91627 5.81668 8.52102 6.82958 8.51246C7.84249 8.50389 8.81833 8.8827 9.54693 9.56729L9.54763 9.5666ZM9.54763 9.5666L12.4345 6.7582L9.54763 9.5666ZM12.4345 6.7582L14.5416 8.80813L17 6.41655L14.8928 4.36662L12.4345 6.7582Z" stroke="#2084E1" stroke-width="1.5" stroke-linecap="round" stroke-linejoin="round"/>
</svg>
