<svg width="20" height="20" viewBox="0 0 20 20" fill="none" xmlns="http://www.w3.org/2000/svg">
<path fill-rule="evenodd" clip-rule="evenodd" d="M4.75 9.5C4.75 6.87665 6.87665 4.75 9.5 4.75C12.1234 4.75 14.25 6.87665 14.25 9.5C14.25 12.1234 12.1234 14.25 9.5 14.25C6.87665 14.25 4.75 12.1234 4.75 9.5ZM9.5 3.25C6.04822 3.25 3.25 6.04822 3.25 9.5C3.25 12.9518 6.04822 15.75 9.5 15.75C10.9616 15.75 12.3059 15.2483 13.3703 14.4078C13.3985 14.4512 13.4316 14.4923 13.4697 14.5303L15.4697 16.5303C15.7626 16.8232 16.2374 16.8232 16.5303 16.5303C16.8232 16.2374 16.8232 15.7626 16.5303 15.4697L14.5303 13.4697C14.4923 13.4316 14.4512 13.3985 14.4078 13.3703C15.2483 12.3059 15.75 10.9616 15.75 9.5C15.75 6.04822 12.9518 3.25 9.5 3.25Z" fill="#2084E1"/>
</svg>
