<svg width="20" height="20" viewBox="0 0 20 20" fill="none" xmlns="http://www.w3.org/2000/svg">
<path d="M4.75 11.75L2.99998 10L4.75 8.25" stroke="#2084E1" stroke-width="1.5" stroke-linecap="round" stroke-linejoin="round"/>
<path d="M3.00003 9.99997L8 10" stroke="#2084E1" stroke-width="1.5" stroke-linecap="round" stroke-linejoin="round"/>
<path d="M15.25 8.25L17 10L15.25 11.75" stroke="#2084E1" stroke-width="1.5" stroke-linecap="round" stroke-linejoin="round"/>
<path d="M17 9.99997L12 10" stroke="#2084E1" stroke-width="1.5" stroke-linecap="round" stroke-linejoin="round"/>
<path d="M11.75 15.25L10 17L8.25 15.25" stroke="#2084E1" stroke-width="1.5" stroke-linecap="round" stroke-linejoin="round"/>
<path d="M9.99997 17L10 12" stroke="#2084E1" stroke-width="1.5" stroke-linecap="round" stroke-linejoin="round"/>
<path d="M8.25 4.75L10 2.99998L11.75 4.75" stroke="#2084E1" stroke-width="1.5" stroke-linecap="round" stroke-linejoin="round"/>
<path d="M9.99997 3.00003L10 8" stroke="#2084E1" stroke-width="1.5" stroke-linecap="round" stroke-linejoin="round"/>
<path d="M10 12C11.1046 12 12 11.1046 12 10C12 8.89543 11.1046 8 10 8C8.89543 8 8 8.89543 8 10C8 11.1046 8.89543 12 10 12Z" stroke="#2084E1" stroke-width="1.5" stroke-linecap="round" stroke-linejoin="round"/>
</svg>
