<svg width="24" height="24" viewBox="0 0 24 24" fill="none" xmlns="http://www.w3.org/2000/svg">
<path fill-rule="evenodd" clip-rule="evenodd" d="M8.81994 18.8484L16.9329 18.8481C18.5115 18.848 19.8672 17.726 20.1624 16.1752L21.793 7.60771C21.8819 7.14024 21.5235 6.70721 21.0477 6.70721L20.9611 6.70721L8.81994 18.8484ZM18.1001 6.70711L4.97342 6.70664L4.92922 6.49288L4.88849 6.32905C4.60974 5.36178 3.72189 4.68457 2.70182 4.68457H2.33532L2.23237 4.6915C1.86207 4.74173 1.57666 5.05915 1.57666 5.44323C1.57666 5.86222 1.91632 6.20188 2.33532 6.20188H2.70182L2.80783 6.20928C3.12033 6.25319 3.37791 6.48853 3.44429 6.80466L3.61314 7.60779L5.24473 16.1759C5.4082 17.0343 5.89663 17.7613 6.56794 18.2393L18.1001 6.70711ZM11.1863 21.3786C11.1863 20.5406 10.507 19.8612 9.669 19.8612C8.83101 19.8612 8.15169 20.5406 8.15169 21.3786C8.15169 22.2166 8.83101 22.8959 9.669 22.8959C10.507 22.8959 11.1863 22.2166 11.1863 21.3786ZM17.2556 21.3786C17.2556 20.5406 16.5763 19.8612 15.7383 19.8612C14.9003 19.8612 14.2209 20.5406 14.2209 21.3786C14.2209 22.2166 14.9003 22.8959 15.7383 22.8959C16.5763 22.8959 17.2556 22.2166 17.2556 21.3786Z" fill="inherit"/>
<rect y="22.7842" width="32.2215" height="1.71962" rx="0.859811" transform="rotate(-45 0 22.7842)" fill="inherit"/>
</svg>
