<svg width="20" height="20" viewBox="0 0 20 20" fill="none" xmlns="http://www.w3.org/2000/svg">
<path d="M15.3852 4.64612C15.3796 4.64019 15.3779 4.63231 15.3721 4.62651C15.3664 4.62072 15.3583 4.61896 15.3523 4.61335C13.9312 3.19742 12.0065 2.40234 10 2.40234C7.99347 2.40234 6.06877 3.19742 4.64765 4.61335C4.64167 4.61896 4.63369 4.62067 4.62785 4.62651C4.62201 4.63235 4.62038 4.64018 4.61482 4.64612C3.5559 5.70965 2.8359 7.06289 2.54569 8.53506C2.25547 10.0072 2.40805 11.5323 2.98416 12.9179C3.56028 14.3035 4.53411 15.4874 5.78275 16.3203C7.03139 17.1532 8.49887 17.5977 10 17.5977C11.5011 17.5977 12.9686 17.1532 14.2173 16.3203C15.4659 15.4874 16.4397 14.3035 17.0158 12.9179C17.5919 11.5323 17.7445 10.0072 17.4543 8.53506C17.1641 7.06289 16.4441 5.70965 15.3852 4.64612V4.64612ZM9.99996 16.0722C9.08996 16.0719 8.19169 15.867 7.37168 15.4726C6.55167 15.0782 5.83092 14.5045 5.26283 13.7939H8.31349C8.52477 14.0326 8.78437 14.2238 9.07511 14.3547C9.36584 14.4856 9.68108 14.5533 9.99996 14.5533C10.3188 14.5533 10.6341 14.4856 10.9248 14.3547C11.2156 14.2238 11.4752 14.0326 11.6864 13.7939H14.7371C14.169 14.5045 13.4483 15.0782 12.6283 15.4726C11.8082 15.867 10.91 16.0719 9.99996 16.0722V16.0722ZM9.2402 12.275C9.2402 12.1248 9.28476 11.978 9.36824 11.8531C9.45172 11.7282 9.57038 11.6309 9.70921 11.5734C9.84804 11.5159 10.0008 11.5009 10.1482 11.5302C10.2956 11.5595 10.4309 11.6318 10.5372 11.738C10.6435 11.8442 10.7158 11.9795 10.7451 12.1269C10.7744 12.2742 10.7594 12.4269 10.7019 12.5656C10.6444 12.7044 10.547 12.823 10.4221 12.9065C10.2971 12.9899 10.1502 13.0345 9.99996 13.0345C9.79852 13.0342 9.60539 12.9542 9.46295 12.8118C9.32051 12.6694 9.2404 12.4764 9.2402 12.275V12.275ZM15.63 12.2766L15.6221 12.275H12.2793C12.2778 11.8054 12.131 11.3477 11.8589 10.9649C11.5868 10.582 11.2029 10.2927 10.7597 10.1366V7.7184C10.7597 7.51698 10.6797 7.32382 10.5372 7.18139C10.3947 7.03897 10.2015 6.95896 9.99996 6.95896C9.79846 6.95896 9.60521 7.03897 9.46273 7.18139C9.32024 7.32382 9.2402 7.51698 9.2402 7.7184V10.1366C8.79705 10.2927 8.41309 10.582 8.14102 10.9649C7.86895 11.3477 7.72211 11.8054 7.72067 12.275H4.37777L4.36993 12.2766C4.17232 11.7892 4.03941 11.278 3.97461 10.7561H4.6816C4.88311 10.7561 5.07636 10.6761 5.21884 10.5337C5.36132 10.3913 5.44137 10.1981 5.44137 9.99671C5.44137 9.79529 5.36132 9.60213 5.21884 9.4597C5.07636 9.31728 4.88311 9.23727 4.6816 9.23727H3.97461C4.11037 8.15778 4.53539 7.13502 5.20473 6.27707L5.70217 6.7743C5.77271 6.84481 5.85646 6.90074 5.94863 6.9389C6.0408 6.97706 6.13958 6.9967 6.23935 6.9967C6.33911 6.9967 6.4379 6.97706 6.53007 6.9389C6.62224 6.90074 6.70598 6.84481 6.77653 6.77429C6.84707 6.70378 6.90303 6.62007 6.9412 6.52794C6.97938 6.43581 6.99903 6.33707 6.99903 6.23735C6.99903 6.13763 6.97938 6.03888 6.9412 5.94675C6.90302 5.85462 6.84706 5.77091 6.77652 5.7004L6.27913 5.20323C7.13739 4.53439 8.16043 4.10968 9.2402 3.97397V4.68065C9.2402 4.88207 9.32024 5.07523 9.46273 5.21765C9.60521 5.36008 9.79846 5.44009 9.99996 5.44009C10.2015 5.44009 10.3947 5.36008 10.5372 5.21765C10.6797 5.07523 10.7597 4.88207 10.7597 4.68065V3.97397C11.8395 4.10968 12.8625 4.53439 13.7208 5.20323L13.2234 5.7004C13.0809 5.84281 13.0009 6.03595 13.0009 6.23735C13.0009 6.43874 13.0809 6.63188 13.2234 6.77429C13.3659 6.9167 13.5591 6.9967 13.7606 6.9967C13.9621 6.99671 14.1553 6.9167 14.2978 6.7743L14.7952 6.27707C15.4645 7.13502 15.8895 8.15778 16.0253 9.23727H15.3183C15.1168 9.23727 14.9236 9.31728 14.7811 9.4597C14.6386 9.60213 14.5586 9.79529 14.5586 9.99671C14.5586 10.1981 14.6386 10.3913 14.7811 10.5337C14.9236 10.6761 15.1168 10.7561 15.3183 10.7561H16.0253C15.9605 11.278 15.8276 11.7892 15.63 12.2766V12.2766Z" fill="#2084E1"/>
</svg>
