<svg width="24" height="24" viewBox="0 0 24 24" fill="none" xmlns="http://www.w3.org/2000/svg">
<path d="M17.25 5H6.75C5.7835 5 5 5.7835 5 6.75V17.25C5 18.2165 5.7835 19 6.75 19H17.25C18.2165 19 19 18.2165 19 17.25V6.75C19 5.7835 18.2165 5 17.25 5Z" stroke="#F3BA27" stroke-width="2" stroke-linecap="round" stroke-linejoin="round"/>
<path d="M14 10H10V14H14V10Z" stroke="#F3BA27" stroke-width="2" stroke-linecap="round" stroke-linejoin="round"/>
<path d="M10 3V5" stroke="#F3BA27" stroke-width="2" stroke-linecap="round" stroke-linejoin="round"/>
<path d="M14 3V5" stroke="#F3BA27" stroke-width="2" stroke-linecap="round" stroke-linejoin="round"/>
<path d="M10 19V21" stroke="#F3BA27" stroke-width="2" stroke-linecap="round" stroke-linejoin="round"/>
<path d="M14 19V21" stroke="#F3BA27" stroke-width="2" stroke-linecap="round" stroke-linejoin="round"/>
<path d="M19 10H21" stroke="#F3BA27" stroke-width="2" stroke-linecap="round" stroke-linejoin="round"/>
<path d="M19 14H21" stroke="#F3BA27" stroke-width="2" stroke-linecap="round" stroke-linejoin="round"/>
<path d="M3 10H5" stroke="#F3BA27" stroke-width="2" stroke-linecap="round" stroke-linejoin="round"/>
<path d="M3 14H5" stroke="#F3BA27" stroke-width="2" stroke-linecap="round" stroke-linejoin="round"/>
</svg>
