<svg width="8" height="8" viewBox="0 0 8 8" fill="none" xmlns="http://www.w3.org/2000/svg">
<g clip-path="url(#clip0_934_3307)">
<path fill-rule="evenodd" clip-rule="evenodd" d="M1.13569 2.19635C0.842793 1.90345 0.842793 1.42858 1.13569 1.13569C1.42858 0.842792 1.90345 0.842792 2.19635 1.13569L3.99967 2.93901L5.803 1.13569C6.0959 0.842792 6.57077 0.842792 6.86366 1.13569C7.15656 1.42858 7.15656 1.90345 6.86366 2.19635L5.06033 3.99967L6.86301 5.80235C7.15591 6.09525 7.15591 6.57012 6.86301 6.86301C6.57012 7.15591 6.09525 7.15591 5.80235 6.86301L3.99967 5.06033L2.197 6.86301C1.9041 7.15591 1.42923 7.15591 1.13634 6.86301C0.843443 6.57012 0.843443 6.09525 1.13634 5.80235L2.93901 3.99967L1.13569 2.19635Z" fill="#2084E1"/>
</g>
<defs>
<clipPath id="clip0_934_3307">
<rect width="8" height="8" fill="white"/>
</clipPath>
</defs>
</svg>
