<svg width="24" height="24" viewBox="0 0 24 24" fill="none" xmlns="http://www.w3.org/2000/svg">
<path d="M8.62749 12.75C10.0774 12.75 11.2528 13.9253 11.2528 15.375V18.375C11.2528 19.8247 10.0774 21 8.62749 21H5.62717C4.17727 21 3.0019 19.8247 3.0019 18.375V15.375C3.0019 13.9253 4.17727 12.75 5.62717 12.75H8.62749ZM18.3747 12.75C19.8246 12.75 21 13.9253 21 15.375V18.375C21 19.8247 19.8246 21 18.3747 21H15.3744C13.9245 21 12.7491 19.8247 12.7491 18.375V15.375C12.7491 13.9253 13.9245 12.75 15.3744 12.75H18.3747ZM8.62559 3C10.0755 3 11.2509 4.17525 11.2509 5.625V8.625C11.2509 10.0747 10.0755 11.25 8.62559 11.25H5.62528C4.17538 11.25 3 10.0747 3 8.625V5.625C3 4.17525 4.17538 3 5.62528 3H8.62559ZM18.3728 3C19.8227 3 20.9981 4.17525 20.9981 5.625V8.625C20.9981 10.0747 19.8227 11.25 18.3728 11.25H15.3725C13.9226 11.25 12.7472 10.0747 12.7472 8.625V5.625C12.7472 4.17525 13.9226 3 15.3725 3H18.3728Z" fill="inherit"/>
</svg>
