<svg width="31" height="36" viewBox="0 0 31 36" fill="none" xmlns="http://www.w3.org/2000/svg">
<path d="M22.5165 20.3344L15.5 27.4641L8.48348 20.3344C3.73661 20.7633 0 24.7641 0 29.7V32.625C0 34.4883 1.48772 36 3.32143 36H27.6786C29.5123 36 31 34.4883 31 32.625V29.7C31 24.7641 27.2634 20.7633 22.5165 20.3344ZM2.21429 13.5C4.10335 13.5 5.79866 12.6914 7.00268 11.4117C8.04754 15.2016 11.4312 18 15.5 18C20.3922 18 24.3571 13.9711 24.3571 9C24.3571 4.02891 20.3922 0 15.5 0C12.0125 0 9.02321 2.06719 7.57701 5.04844C6.37299 3.36094 4.42857 2.25 2.21429 2.25C2.21429 4.59844 3.39754 6.66563 5.19665 7.875C3.39754 9.08438 2.21429 11.1516 2.21429 13.5ZM12.1786 6.75H18.8214C20.0462 6.75 21.0357 7.75547 21.0357 9H9.96428C9.96428 7.75547 10.9538 6.75 12.1786 6.75Z" fill="inherit"/>
</svg>
