<svg width="32" height="32" viewBox="0 0 32 32" fill="none" xmlns="http://www.w3.org/2000/svg">
<path d="M2.66667 12.1467L14.2009 18.2183C14.4925 18.3717 14.8409 18.3717 15.1324 18.2183L24.7419 13.1618C25.1422 13.2736 25.5641 13.3334 26 13.3334C26.2268 13.3334 26.4498 13.3172 26.6679 13.2859L26.6667 22.3334C26.6667 24.6441 24.8581 26.5324 22.5792 26.6598L22.3333 26.6667H7C4.68929 26.6667 2.80101 24.8581 2.67353 22.5793L2.66667 22.3334V12.1467ZM21.7827 6.66622C21.4945 7.27251 21.3333 7.95078 21.3333 8.66671C21.3333 9.9587 21.8584 11.1281 22.7067 11.9731L14.6667 16.2033L2.79353 9.95495C3.24166 8.14526 4.82708 6.78421 6.74766 6.67393L7 6.66671L21.7827 6.66622ZM26 5.33337C27.841 5.33337 29.3333 6.82576 29.3333 8.66671C29.3333 10.5077 27.841 12 26 12C24.1591 12 22.6667 10.5077 22.6667 8.66671C22.6667 6.82576 24.1591 5.33337 26 5.33337Z" fill="#1D1D1D"/>
<mask id="mask0" mask-type="alpha" maskUnits="userSpaceOnUse" x="2" y="5" width="28" height="22">
<path d="M2.66666 12.1463L14.2009 18.2179C14.4925 18.3714 14.8409 18.3714 15.1324 18.2179L24.7419 13.1615C25.1421 13.2732 25.5641 13.333 26 13.333C26.2268 13.333 26.4498 13.3168 26.6679 13.2856L26.6667 22.333C26.6667 24.6437 24.858 26.532 22.5792 26.6595L22.3333 26.6663H6.99999C4.68928 26.6663 2.801 24.8577 2.67352 22.5789L2.66666 22.333V12.1463ZM21.7826 6.66585C21.4945 7.27215 21.3333 7.95042 21.3333 8.66634C21.3333 9.95833 21.8584 11.1277 22.7067 11.9727L14.6667 16.203L2.79352 9.95458C3.24165 8.14489 4.82707 6.78385 6.74765 6.67357L6.99999 6.66634L21.7826 6.66585ZM26 5.33301C27.8409 5.33301 29.3333 6.82539 29.3333 8.66634C29.3333 10.5073 27.8409 11.9997 26 11.9997C24.159 11.9997 22.6667 10.5073 22.6667 8.66634C22.6667 6.82539 24.159 5.33301 26 5.33301Z" fill="#F3BA27"/>
</mask>
<g mask="url(#mask0)">
<circle cx="26" cy="8" r="4" fill="#DA2E2E"/>
</g>
</svg>
