<svg width="24" height="24" viewBox="0 0 24 24" fill="none" xmlns="http://www.w3.org/2000/svg">
<path d="M11.5 7H7.22222C6.89807 7 6.58719 7.12877 6.35798 7.35798C6.12877 7.58719 6 7.89807 6 8.22222V16.7778C6 17.1019 6.12877 17.4128 6.35798 17.642C6.58719 17.8712 6.89807 18 7.22222 18H15.7778C16.1019 18 16.4128 17.8712 16.642 17.642C16.8712 17.4128 17 17.1019 17 16.7778V12.5" stroke="#2084E1" stroke-width="1.5" stroke-linecap="round" stroke-linejoin="round"/>
<path d="M15.9485 6.35199C16.1738 6.12661 16.4795 6 16.7982 6C17.117 6 17.4226 6.12661 17.648 6.35199C17.8734 6.57737 18 6.88304 18 7.20177C18 7.5205 17.8734 7.82617 17.648 8.05155L12.2661 13.4335L10 14L10.5665 11.7339L15.9485 6.35199Z" stroke="#2084E1" stroke-width="1.5" stroke-linecap="round" stroke-linejoin="round"/>
</svg>
