<svg width="16" height="16" viewBox="0 0 16 16" fill="none" xmlns="http://www.w3.org/2000/svg">
<path d="M11.1111 8H4.88889C4.39797 8 4 8.40701 4 8.90909V12.0909C4 12.593 4.39797 13 4.88889 13H11.1111C11.602 13 12 12.593 12 12.0909V8.90909C12 8.40701 11.602 8 11.1111 8Z" stroke="black" stroke-width="2" stroke-linecap="round" stroke-linejoin="round"/>
<path d="M6 7V5.66667C6 5.22464 6.21071 4.80072 6.58579 4.48816C6.96086 4.17559 7.46957 4 8 4C8.53043 4 9.03914 4.17559 9.41421 4.48816C9.78929 4.80072 10 5.22464 10 5.66667V7" stroke="black" stroke-width="2" stroke-linecap="round" stroke-linejoin="round"/>
</svg>
