<svg width="22" height="22" viewBox="0 0 22 22" fill="none" xmlns="http://www.w3.org/2000/svg">
<path d="M8.3711 21.3129C8.25591 21.313 8.1421 21.2879 8.03766 21.2393C7.93322 21.1907 7.84068 21.1199 7.76656 21.0317C7.69243 20.9435 7.63852 20.8402 7.6086 20.7289C7.57868 20.6177 7.57348 20.5013 7.59336 20.3878V20.3831L8.80122 13.7504H4.12493C3.99513 13.7504 3.86798 13.7137 3.7582 13.6444C3.64842 13.5751 3.56048 13.4762 3.50457 13.3591C3.44865 13.242 3.42703 13.1114 3.44222 12.9825C3.45741 12.8536 3.50878 12.7316 3.5904 12.6307L13.0079 0.988709C13.1151 0.852637 13.2639 0.75542 13.4315 0.711923C13.5992 0.668427 13.7765 0.681046 13.9363 0.74785C14.0962 0.814654 14.2297 0.931967 14.3166 1.08185C14.4034 1.23173 14.4388 1.40593 14.4172 1.57781C14.4172 1.5907 14.4138 1.60316 14.4116 1.61605L13.1995 8.25043H17.8749C18.0047 8.25044 18.1319 8.2872 18.2417 8.35645C18.3514 8.4257 18.4394 8.52462 18.4953 8.64176C18.5512 8.75889 18.5728 8.88947 18.5576 9.01838C18.5424 9.14728 18.4911 9.26926 18.4095 9.37019L8.99071 21.0121C8.9167 21.1057 8.82255 21.1813 8.71527 21.2333C8.608 21.2854 8.49035 21.3126 8.3711 21.3129Z" fill="inherit"/>
</svg>
