<svg width="32" height="32" viewBox="0 0 32 32" fill="none" xmlns="http://www.w3.org/2000/svg">
<path d="M26.6663 16V29.3333H5.33301V16" stroke="#F3BA27" stroke-width="2" stroke-linecap="round" stroke-linejoin="round"/>
<path d="M29.3337 9.33398H2.66699V16.0007H29.3337V9.33398Z" stroke="#F3BA27" stroke-width="2" stroke-linecap="round" stroke-linejoin="round"/>
<path d="M16 29.334V9.33398" stroke="#F3BA27" stroke-width="2" stroke-linecap="round" stroke-linejoin="round"/>
<path d="M16 9.33268H22C22.8841 9.33268 23.7319 8.98149 24.357 8.35637C24.9821 7.73125 25.3333 6.8834 25.3333 5.99935C25.3333 5.11529 24.9821 4.26745 24.357 3.64233C23.7319 3.01721 22.8841 2.66602 22 2.66602C17.3333 2.66602 16 9.33268 16 9.33268Z" stroke="#F3BA27" stroke-width="2" stroke-linecap="round" stroke-linejoin="round"/>
<path d="M16.0003 9.33268H10.0003C9.11627 9.33268 8.26842 8.98149 7.6433 8.35637C7.01818 7.73125 6.66699 6.8834 6.66699 5.99935C6.66699 5.11529 7.01818 4.26745 7.6433 3.64233C8.26842 3.01721 9.11627 2.66602 10.0003 2.66602C14.667 2.66602 16.0003 9.33268 16.0003 9.33268Z" stroke="#F3BA27" stroke-width="2" stroke-linecap="round" stroke-linejoin="round"/>
</svg>
