<svg width="27" height="25" viewBox="0 0 27 25" fill="none" xmlns="http://www.w3.org/2000/svg">
<path d="M19.2841 0.871094C18.1414 0.870927 17.0155 1.14649 16.002 1.6744C14.9885 2.20231 14.1174 2.96697 13.4626 3.90346C12.8078 2.96697 11.9366 2.20231 10.9232 1.6744C9.90968 1.14649 8.78379 0.870927 7.64106 0.871094C5.754 0.871094 3.94422 1.62073 2.60987 2.95508C1.27551 4.28944 0.525879 6.09921 0.525879 7.98628C0.525879 15.3861 8.93473 21.4896 13.4626 24.6099C17.9904 21.4896 26.3993 15.3861 26.3993 7.98628C26.3993 7.0519 26.2152 6.12667 25.8577 5.26342C25.5001 4.40016 24.976 3.61579 24.3153 2.95508C23.6546 2.29438 22.8702 1.77028 22.007 1.41271C21.1437 1.05513 20.2185 0.871094 19.2841 0.871094Z" fill="#F3BA27"/>
</svg>
