<svg width="122" height="122" viewBox="0 0 122 122" fill="none" xmlns="http://www.w3.org/2000/svg">
<path d="M81.5871 20.3333C77.5459 20.3327 73.5643 21.2768 69.9802 23.0855C66.3961 24.8942 63.3154 27.5141 60.9996 30.7226C58.6838 27.5141 55.6031 24.8942 52.019 23.0855C48.4349 21.2768 44.4533 20.3327 40.4121 20.3333C33.7386 20.3333 27.3384 22.9016 22.6195 27.4734C17.9006 32.0451 15.2496 38.2457 15.2496 44.7111C15.2496 70.064 44.9871 90.9758 60.9996 101.667C77.0121 90.9758 106.75 70.064 106.75 44.7111C106.75 41.5097 106.099 38.3398 104.834 35.3821C103.57 32.4244 101.716 29.737 99.3797 27.4734C97.0431 25.2097 94.2692 23.414 91.2164 22.1889C88.1635 20.9638 84.8915 20.3333 81.5871 20.3333Z" fill="white"/>
<path d="M81.5871 20.3333C77.5459 20.3327 73.5643 21.2768 69.9802 23.0855C66.3961 24.8942 63.3154 27.5141 60.9996 30.7226C58.6838 27.5141 55.6031 24.8942 52.019 23.0855C48.4349 21.2768 44.4533 20.3327 40.4121 20.3333C33.7386 20.3333 27.3384 22.9016 22.6195 27.4734C17.9006 32.0451 15.2496 38.2457 15.2496 44.7111C15.2496 70.064 44.9871 90.9758 60.9996 101.667C77.0121 90.9758 106.75 70.064 106.75 44.7111C106.75 41.5097 106.099 38.3398 104.834 35.3821C103.57 32.4244 101.716 29.737 99.3797 27.4734C97.0431 25.2097 94.2692 23.414 91.2164 22.1889C88.1635 20.9638 84.8915 20.3333 81.5871 20.3333Z" fill="#2084E1" fill-opacity="0.16"/>
</svg>
