<svg width="20" height="20" viewBox="0 0 20 20" fill="none" xmlns="http://www.w3.org/2000/svg">
<path d="M13.8183 3.3245C13.1285 2.77441 12.3207 2.38057 11.4539 2.17172C10.5871 1.96287 9.68307 1.94428 8.80789 2.11729C7.64257 2.34551 6.57343 2.90421 5.73613 3.7225C4.89882 4.54078 4.33109 5.58177 4.10497 6.71339C3.93984 7.56186 3.96984 8.43521 4.19285 9.27115C4.41585 10.1071 4.82635 10.885 5.39508 11.5495C5.9229 12.1269 6.22543 12.8654 6.25016 13.6366V15.8183C6.25016 16.3969 6.48724 16.9519 6.90923 17.361C7.33123 17.7701 7.90357 18 8.50037 18H11.5006C12.0974 18 12.6698 17.7701 13.0918 17.361C13.5138 16.9519 13.7508 16.3969 13.7508 15.8183V13.7748C13.776 12.9233 14.0987 12.1054 14.6659 11.4549C15.6599 10.2628 16.1284 8.73859 15.9697 7.21345C15.811 5.68831 15.0379 4.28552 13.8183 3.30995V3.3245ZM12.2507 15.8183C12.2507 16.0112 12.1717 16.1962 12.031 16.3325C11.8904 16.4689 11.6996 16.5455 11.5006 16.5455H8.50037C8.30143 16.5455 8.11065 16.4689 7.96999 16.3325C7.82932 16.1962 7.7503 16.0112 7.7503 15.8183V15.0911H12.2507V15.8183ZM13.5033 10.5532C12.7491 11.4205 12.3091 12.5036 12.2507 13.6366H10.7506V11.4549C10.7506 11.2621 10.6715 11.0771 10.5309 10.9407C10.3902 10.8043 10.1994 10.7277 10.0005 10.7277C9.80157 10.7277 9.61079 10.8043 9.47012 10.9407C9.32946 11.0771 9.25043 11.2621 9.25043 11.4549V13.6366H7.7503C7.73051 12.5226 7.30547 11.4511 6.55019 10.6113C6.05187 10.0325 5.71678 9.33827 5.57758 8.59644C5.43838 7.85461 5.49983 7.09047 5.75593 6.37852C6.01203 5.66657 6.45405 5.03112 7.03887 4.53412C7.6237 4.03712 8.33138 3.69553 9.09292 3.54267C9.74739 3.41201 10.4237 3.4243 11.0726 3.57864C11.7216 3.73298 12.327 4.02549 12.8448 4.43494C13.3626 4.84439 13.7799 5.36051 14.0664 5.94581C14.3528 6.53111 14.5013 7.17092 14.5009 7.81878C14.5065 8.81498 14.1537 9.78191 13.5033 10.5532V10.5532Z" fill="#2084E1"/>
</svg>
