<svg width="24" height="24" viewBox="0 0 24 24" fill="none" xmlns="http://www.w3.org/2000/svg">
<path d="M17.5002 11.75C20.1236 11.75 22.2502 13.8766 22.2502 16.5C22.2502 19.1234 20.1236 21.25 17.5002 21.25C15.4022 21.25 13.6219 19.8898 12.993 18.0032H11.0075C10.3786 19.8898 8.59824 21.25 6.50023 21.25C3.87687 21.25 1.75023 19.1234 1.75023 16.5C1.75023 13.8766 3.87687 11.75 6.50023 11.75C8.95481 11.75 10.9745 13.6118 11.2243 16.0003H12.7762C13.0259 13.6118 15.0456 11.75 17.5002 11.75ZM6.50023 13.75C4.98144 13.75 3.75023 14.9812 3.75023 16.5C3.75023 18.0188 4.98144 19.25 6.50023 19.25C8.01901 19.25 9.25023 18.0188 9.25023 16.5C9.25023 14.9812 8.01901 13.75 6.50023 13.75ZM17.5002 13.75C15.9814 13.75 14.7502 14.9812 14.7502 16.5C14.7502 18.0188 15.9814 19.25 17.5002 19.25C19.019 19.25 20.2502 18.0188 20.2502 16.5C20.2502 14.9812 19.019 13.75 17.5002 13.75ZM15.5122 3C16.7266 3 17.7972 3.79659 18.1462 4.95979L19.1523 8.31093C19.9448 8.44285 20.7205 8.59805 21.4793 8.77658C22.0169 8.90308 22.3501 9.44144 22.2236 9.97904C22.0971 10.5166 21.5588 10.8499 21.0212 10.7234C18.2656 10.0751 15.2589 9.75 12.0002 9.75C8.74156 9.75 5.7348 10.0751 2.97926 10.7234C2.44166 10.8499 1.9033 10.5166 1.77681 9.97904C1.65031 9.44144 1.98358 8.90308 2.52119 8.77658C3.27963 8.59813 4.05496 8.44298 4.84716 8.3111L5.85426 4.95979C6.20323 3.79659 7.27386 3 8.48829 3H15.5122Z" fill="#1D1D1D"/>
</svg>
