<svg width="12" height="12" viewBox="0 0 12 12" fill="none" xmlns="http://www.w3.org/2000/svg">
<path fill-rule="evenodd" clip-rule="evenodd" d="M12 6C12 9.31371 9.31371 12 6 12C2.68629 12 0 9.31371 0 6C0 2.68629 2.68629 0 6 0C9.31371 0 12 2.68629 12 6ZM4.5 3C4.5 2.44772 4.94772 2 5.5 2H6.5C7.05228 2 7.5 2.44772 7.5 3V6C7.5 6.55228 7.05228 7 6.5 7H5.5C4.94772 7 4.5 6.55228 4.5 6V3ZM5.5 8C4.94772 8 4.5 8.44771 4.5 9C4.5 9.55229 4.94772 10 5.5 10H6.5C7.05228 10 7.5 9.55229 7.5 9C7.5 8.44771 7.05228 8 6.5 8H5.5Z" fill="#1D1D1D"/>
</svg>
