<svg width="20" height="20" viewBox="0 0 20 20" fill="none" xmlns="http://www.w3.org/2000/svg">
<path d="M17 15V11H14" stroke="#2084E1" stroke-width="1.5" stroke-linecap="round" stroke-linejoin="round"/>
<path d="M3 5V9H7" stroke="#2084E1" stroke-width="1.5" stroke-linecap="round" stroke-linejoin="round"/>
<path d="M15.4027 7.99947C15.08 7.04375 14.5315 6.18927 13.8083 5.51577C13.0852 4.84227 12.2111 4.3717 11.2675 4.14797C10.3238 3.92424 9.34152 3.95464 8.41215 4.23633C7.48278 4.51803 6.63666 5.04184 5.95273 5.75889L3 8.66632M17 11.3337L14.0473 14.2411C13.3633 14.9582 12.5172 15.482 11.5878 15.7637C10.6585 16.0454 9.67616 16.0758 8.73255 15.852C7.78893 15.6283 6.91478 15.1577 6.19166 14.4842C5.46854 13.8107 4.92002 12.9563 4.59727 12.0005" stroke="#2084E1" stroke-width="1.5" stroke-linecap="round" stroke-linejoin="round"/>
</svg>
