<svg width="18" height="18" viewBox="0 0 18 18" fill="none" xmlns="http://www.w3.org/2000/svg">
<path d="M9 1.5C10.6569 1.5 12 2.84315 12 4.5V6H13.875C14.4963 6 15 6.50368 15 7.125V15.375C15 15.9963 14.4963 16.5 13.875 16.5H4.125C3.50368 16.5 3 15.9963 3 15.375V7.125C3 6.50368 3.50368 6 4.125 6H6V4.5C6 2.84315 7.34315 1.5 9 1.5ZM9.00009 10.125C8.37877 10.125 7.87509 10.6287 7.87509 11.25C7.87509 11.8713 8.37877 12.375 9.00009 12.375C9.62141 12.375 10.1251 11.8713 10.1251 11.25C10.1251 10.6287 9.62141 10.125 9.00009 10.125ZM9 3C8.17157 3 7.5 3.67157 7.5 4.5V6H10.5V4.5C10.5 3.67157 9.82843 3 9 3Z" fill="#11BD37"/>
</svg>
