<svg width="18" height="18" viewBox="0 0 18 18" fill="none" xmlns="http://www.w3.org/2000/svg">
<path d="M7.5 1.5C9.15685 1.5 10.5 2.84315 10.5 4.5V6H12.375C12.9963 6 13.5 6.50368 13.5 7.125L13.5003 8.25C13.2611 8.25003 13.022 8.33218 12.8278 8.49646L12.7474 8.57199C12.1389 9.20568 11.5058 9.5 10.8 9.5C10.2131 9.5 9.75 9.98239 9.75 10.5625V12.4383C9.75 14.2188 10.4426 15.603 11.7602 16.5014L2.625 16.5C2.00368 16.5 1.5 15.9963 1.5 15.375V7.125C1.5 6.50368 2.00368 6 2.625 6H4.5V4.5C4.5 2.84315 5.84315 1.5 7.5 1.5ZM13.7128 9.09173C14.4568 9.86821 15.2814 10.25 16.2 10.25C16.345 10.25 16.4659 10.3571 16.4939 10.4995L16.5 10.5625V12.4383C16.5 14.4497 15.5152 15.8172 13.5949 16.484C13.5333 16.5053 13.4667 16.5053 13.4051 16.484C11.5488 15.8394 10.5667 14.5401 10.5033 12.6373L10.5 12.4383V10.5625C10.5 10.3899 10.6343 10.25 10.8 10.25C11.7175 10.25 12.5425 9.86814 13.2884 9.09149C13.4056 8.96941 13.5957 8.96952 13.7128 9.09173ZM7.50009 10.125C6.87877 10.125 6.37509 10.6287 6.37509 11.25C6.37509 11.8713 6.87877 12.375 7.50009 12.375C8.12141 12.375 8.62509 11.8713 8.62509 11.25C8.62509 10.6287 8.12141 10.125 7.50009 10.125ZM7.5 3C6.67157 3 6 3.67157 6 4.5V6H9V4.5C9 3.67157 8.32843 3 7.5 3Z" fill="#11BD37"/>
</svg>
