<svg width="202" height="32" viewBox="0 0 202 32" fill="none" xmlns="http://www.w3.org/2000/svg">
<path d="M12.9553 1.00169V9.24899C11.8534 7.98018 10.2173 7.21221 7.98017 7.21221C3.6061 7.21221 0 11.052 0 16.0271C0 21.0022 3.6061 24.8421 7.98017 24.8421C10.2173 24.8421 11.8534 24.0741 12.9553 22.8053V24.3746H17.9637V1.00169H12.9553ZM8.98187 20.1007C6.67797 20.1007 5.00848 18.5314 5.00848 16.0271C5.00848 13.5229 6.67797 11.9536 8.98187 11.9536C11.2858 11.9536 12.9553 13.5229 12.9553 16.0271C12.9553 18.5314 11.2858 20.1007 8.98187 20.1007Z" fill="#1D1D1D"/>
<path d="M25.478 6.21051C27.1141 6.21051 28.4831 4.84153 28.4831 3.20543C28.4831 1.56932 27.1141 0.200339 25.478 0.200339C23.8419 0.200339 22.4729 1.56932 22.4729 3.20543C22.4729 4.84153 23.8419 6.21051 25.478 6.21051ZM22.9738 24.3746H27.9823V7.67967H22.9738V24.3746Z" fill="#1D1D1D"/>
<path d="M45.237 7.67967V9.38255C44.1351 8.01356 42.5324 7.21221 40.3621 7.21221C35.6207 7.21221 32.1482 11.0854 32.1482 15.6932C32.1482 20.301 35.6207 24.1743 40.3621 24.1743C42.5324 24.1743 44.1351 23.3729 45.237 22.0039V23.5398C45.237 25.9105 43.8012 27.1126 41.4639 27.1126C39.2602 27.1126 38.2919 26.1776 37.6575 25.009L33.3836 27.4798C34.9195 30.2178 37.8244 31.52 41.297 31.52C45.7378 31.52 50.1119 29.1493 50.1119 23.5398V7.67967H45.237ZM41.1968 19.5665C38.8261 19.5665 37.1566 17.9971 37.1566 15.6932C37.1566 13.3893 38.8261 11.82 41.1968 11.82C43.5675 11.82 45.237 13.3893 45.237 15.6932C45.237 17.9971 43.5675 19.5665 41.1968 19.5665Z" fill="#1D1D1D"/>
<path d="M57.6262 6.21051C59.2623 6.21051 60.6313 4.84153 60.6313 3.20543C60.6313 1.56932 59.2623 0.200339 57.6262 0.200339C55.9901 0.200339 54.6211 1.56932 54.6211 3.20543C54.6211 4.84153 55.9901 6.21051 57.6262 6.21051ZM55.1219 24.3746H60.1304V7.67967H55.1219V24.3746Z" fill="#1D1D1D"/>
<path d="M74.9143 12.4878V7.67967H71.4752V3.00509L66.4667 4.50763V7.67967H63.7955V12.4878H66.4667V18.3978C66.4667 23.0724 68.3699 25.0424 74.9143 24.3746V19.8336C72.7106 19.9671 71.4752 19.8336 71.4752 18.3978V12.4878H74.9143Z" fill="#1D1D1D"/>
<path d="M90.8801 7.67967V9.24899C89.7783 7.98018 88.1422 7.21221 85.905 7.21221C81.531 7.21221 77.9249 11.052 77.9249 16.0271C77.9249 21.0022 81.531 24.8421 85.905 24.8421C88.1422 24.8421 89.7783 24.0741 90.8801 22.8053V24.3746H95.8886V7.67967H90.8801ZM86.9067 20.1007C84.6028 20.1007 82.9333 18.5314 82.9333 16.0271C82.9333 13.5229 84.6028 11.9536 86.9067 11.9536C89.2106 11.9536 90.8801 13.5229 90.8801 16.0271C90.8801 18.5314 89.2106 20.1007 86.9067 20.1007Z" fill="#1D1D1D"/>
<path d="M100.899 24.3746H105.907V0H100.899V24.3746Z" fill="#1D1D1D"/>
<path d="M120.891 7.21221C118.654 7.21221 117.018 7.98018 115.916 9.24899V1.00169H110.908V24.3746H115.916V22.8053C117.018 24.0741 118.654 24.8421 120.891 24.8421C125.265 24.8421 128.872 21.0022 128.872 16.0271C128.872 11.052 125.265 7.21221 120.891 7.21221ZM119.89 20.1007C117.586 20.1007 115.916 18.5314 115.916 16.0271C115.916 13.5229 117.586 11.9536 119.89 11.9536C122.194 11.9536 123.863 13.5229 123.863 16.0271C123.863 18.5314 122.194 20.1007 119.89 20.1007Z" fill="#1D1D1D"/>
<path d="M143.03 7.21221C140.793 7.21221 139.157 7.98018 138.055 9.24899V7.67967H133.047V31.0526H138.055V22.8053C139.157 24.0741 140.793 24.8421 143.03 24.8421C147.404 24.8421 151.011 21.0022 151.011 16.0271C151.011 11.052 147.404 7.21221 143.03 7.21221ZM142.029 20.1007C139.725 20.1007 138.055 18.5314 138.055 16.0271C138.055 13.5229 139.725 11.9536 142.029 11.9536C144.333 11.9536 146.002 13.5229 146.002 16.0271C146.002 18.5314 144.333 20.1007 142.029 20.1007Z" fill="#1D1D1D"/>
<path d="M173.884 7.21221C171.513 7.21221 169.978 8.08034 169.043 9.41594C168.108 8.01356 166.639 7.21221 164.669 7.21221C162.431 7.21221 160.962 8.08034 160.194 9.2156V7.67967H155.186V24.3746H160.194V14.9587C160.194 12.9887 161.129 11.82 162.799 11.82C164.401 11.82 165.203 12.8885 165.203 14.558V24.3746H170.211V14.9587C170.211 12.9887 171.146 11.82 172.816 11.82C174.418 11.82 175.22 12.8885 175.22 14.558V24.3746H180.228V14.1239C180.228 9.95018 177.724 7.21221 173.884 7.21221Z" fill="#1D1D1D"/>
<path d="M196.808 13.2451C196.245 13.245 195.69 13.3809 195.191 13.6411C194.691 13.9013 194.262 14.2782 193.939 14.7398C193.616 14.2782 193.187 13.9013 192.687 13.6411C192.188 13.3809 191.633 13.245 191.069 13.2451C190.139 13.2451 189.247 13.6146 188.59 14.2723C187.932 14.93 187.562 15.8221 187.562 16.7522C187.562 20.3996 191.707 23.408 193.939 24.9461C196.171 23.408 200.315 20.3996 200.315 16.7522C200.315 16.2917 200.225 15.8356 200.048 15.4101C199.872 14.9846 199.614 14.598 199.288 14.2723C198.963 13.9467 198.576 13.6883 198.15 13.5121C197.725 13.3358 197.269 13.2451 196.808 13.2451Z" fill="#F3BA27"/>
</svg>
