<svg width="366" height="64" viewBox="0 0 366 64" fill="none" xmlns="http://www.w3.org/2000/svg">
<path d="M26.2836 2.03224V18.7643C24.0481 16.1902 20.7288 14.6321 16.1902 14.6321C7.31606 14.6321 0 22.4224 0 32.5158C0 42.6093 7.31606 50.3995 16.1902 50.3995C20.7288 50.3995 24.0481 48.8414 26.2836 46.2673V49.4511H36.4448V2.03224H26.2836ZM18.2224 40.7802C13.5483 40.7802 10.1612 37.5964 10.1612 32.5158C10.1612 27.4352 13.5483 24.2514 18.2224 24.2514C22.8965 24.2514 26.2836 27.4352 26.2836 32.5158C26.2836 37.5964 22.8965 40.7802 18.2224 40.7802Z" fill="#1D1D1D"/>
<path d="M51.6898 12.5999C55.0091 12.5999 57.7865 9.82248 57.7865 6.50316C57.7865 3.18384 55.0091 0.406446 51.6898 0.406446C48.3704 0.406446 45.593 3.18384 45.593 6.50316C45.593 9.82248 48.3704 12.5999 51.6898 12.5999ZM46.6092 49.4511H56.7704V15.5805H46.6092V49.4511Z" fill="#1D1D1D"/>
<path d="M91.7767 15.5805V19.0353C89.5412 16.2579 86.2897 14.6321 81.8865 14.6321C72.2672 14.6321 65.2221 22.4901 65.2221 31.8384C65.2221 41.1867 72.2672 49.0447 81.8865 49.0447C86.2897 49.0447 89.5412 47.4189 91.7767 44.6415V47.7576C91.7767 52.5672 88.8638 55.0059 84.1219 55.0059C79.651 55.0059 77.6865 53.1091 76.3994 50.7382L67.7286 55.7511C70.8447 61.3058 76.7381 63.9478 83.7832 63.9478C92.7928 63.9478 101.667 59.1381 101.667 47.7576V15.5805H91.7767ZM83.58 39.6964C78.7704 39.6964 75.3833 36.5125 75.3833 31.8384C75.3833 27.1642 78.7704 23.9804 83.58 23.9804C88.3896 23.9804 91.7767 27.1642 91.7767 31.8384C91.7767 36.5125 88.3896 39.6964 83.58 39.6964Z" fill="#1D1D1D"/>
<path d="M116.912 12.5999C120.231 12.5999 123.009 9.82248 123.009 6.50316C123.009 3.18384 120.231 0.406446 116.912 0.406446C113.593 0.406446 110.815 3.18384 110.815 6.50316C110.815 9.82248 113.593 12.5999 116.912 12.5999ZM111.831 49.4511H121.992V15.5805H111.831V49.4511Z" fill="#1D1D1D"/>
<path d="M151.986 25.3352V15.5805H145.009V6.09671L134.847 9.14507V15.5805H129.428V25.3352H134.847V37.3254C134.847 46.8092 138.709 50.8059 151.986 49.4511V40.2383C147.515 40.5093 145.009 40.2383 145.009 37.3254V25.3352H151.986Z" fill="#1D1D1D"/>
<path d="M184.377 15.5805V18.7643C182.142 16.1902 178.823 14.6321 174.284 14.6321C165.41 14.6321 158.094 22.4224 158.094 32.5158C158.094 42.6093 165.41 50.3995 174.284 50.3995C178.823 50.3995 182.142 48.8414 184.377 46.2673V49.4511H194.539V15.5805H184.377ZM176.316 40.7802C171.642 40.7802 168.255 37.5964 168.255 32.5158C168.255 27.4352 171.642 24.2514 176.316 24.2514C180.99 24.2514 184.377 27.4352 184.377 32.5158C184.377 37.5964 180.99 40.7802 176.316 40.7802Z" fill="#1D1D1D"/>
<path d="M204.703 49.4511H214.864V0H204.703V49.4511Z" fill="#1D1D1D"/>
<path d="M245.264 14.6321C240.725 14.6321 237.406 16.1902 235.171 18.7643V2.03224H225.009V49.4511H235.171V46.2673C237.406 48.8414 240.725 50.3995 245.264 50.3995C254.138 50.3995 261.454 42.6093 261.454 32.5158C261.454 22.4224 254.138 14.6321 245.264 14.6321ZM243.232 40.7802C238.558 40.7802 235.171 37.5964 235.171 32.5158C235.171 27.4352 238.558 24.2514 243.232 24.2514C247.906 24.2514 251.293 27.4352 251.293 32.5158C251.293 37.5964 247.906 40.7802 243.232 40.7802Z" fill="#1D1D1D"/>
<path d="M290.18 14.6321C285.641 14.6321 282.322 16.1902 280.086 18.7643V15.5805H269.925V62.9994H280.086V46.2673C282.322 48.8414 285.641 50.3995 290.18 50.3995C299.054 50.3995 306.37 42.6093 306.37 32.5158C306.37 22.4224 299.054 14.6321 290.18 14.6321ZM288.147 40.7802C283.473 40.7802 280.086 37.5964 280.086 32.5158C280.086 27.4352 283.473 24.2514 288.147 24.2514C292.822 24.2514 296.209 27.4352 296.209 32.5158C296.209 37.5964 292.822 40.7802 288.147 40.7802Z" fill="#1D1D1D"/>
<path d="M352.776 14.6321C347.966 14.6321 344.85 16.3934 342.953 19.103C341.057 16.2579 338.076 14.6321 334.079 14.6321C329.541 14.6321 326.56 16.3934 325.002 18.6966V15.5805H314.841V49.4511H325.002V30.3481C325.002 26.3514 326.899 23.9804 330.286 23.9804C333.537 23.9804 335.163 26.1481 335.163 29.5352V49.4511H345.324V30.3481C345.324 26.3514 347.221 23.9804 350.608 23.9804C353.86 23.9804 355.485 26.1481 355.485 29.5352V49.4511H365.647V28.6546C365.647 20.1869 360.566 14.6321 352.776 14.6321Z" fill="#1D1D1D"/>
</svg>
