<svg width="24" height="24" viewBox="0 0 24 24" fill="none" xmlns="http://www.w3.org/2000/svg">
<path d="M21.9068 5.62212C21.9686 5.83015 22 6.04602 22 6.26304V17.7384C22 18.9811 20.9926 19.9884 19.75 19.9884C19.5329 19.9884 19.317 19.957 19.1089 19.8952L13.595 18.2555C12.9378 19.6006 11.5584 20.4992 10 20.4992C7.8578 20.4992 6.10892 18.8152 6.0049 16.6988L6 16.4992L5.999 15.9985L3.60891 15.2878C2.65446 15.0041 2 14.1268 2 13.131V10.8691C2 9.87332 2.65455 8.99597 3.60908 8.71232L19.1091 4.10626C20.3002 3.75229 21.5528 4.43096 21.9068 5.62212ZM7.499 16.4445L7.5 16.4992C7.5 17.8799 8.61929 18.9992 10 18.9992C10.8852 18.9992 11.6783 18.535 12.1238 17.8197L7.499 16.4445Z" fill="#212121"/>
</svg>
