<svg width="24" height="24" viewBox="0 0 24 24" fill="none" xmlns="http://www.w3.org/2000/svg">
<path d="M13.4973 2.91852L20.3745 7.51347C20.871 7.8452 21.0052 8.5175 20.6742 9.01509C20.5951 9.13404 20.4932 9.23611 20.3745 9.31542L13.4973 13.9104C12.59 14.5166 11.408 14.5166 10.5007 13.9104L3.62342 9.31542C3.12693 8.98369 2.99276 8.31139 3.32376 7.8138C3.40289 7.69484 3.50473 7.59277 3.62342 7.51347L10.5007 2.91852C11.408 2.31232 12.59 2.31232 13.4973 2.91852ZM20.6703 12.4122C20.5099 12.6693 20.2975 12.8898 20.0468 13.0594L13.5102 17.4813C12.597 18.0991 11.401 18.0991 10.4878 17.4813L3.95118 13.0594C3.12897 12.5032 2.81013 11.4792 3.10936 10.5801L10.5007 15.5174C11.3513 16.0857 12.4433 16.1212 13.3241 15.6239L13.4973 15.5174L20.8879 10.5796C21.0842 11.171 21.0256 11.8424 20.6703 12.4122ZM20.6703 15.9314C20.5099 16.1885 20.2975 16.409 20.0468 16.5786L13.5102 21.0005C12.597 21.6183 11.401 21.6183 10.4878 21.0005L3.95118 16.5786C3.12897 16.0224 2.81013 14.9985 3.10936 14.0993L10.5007 19.0366C11.3513 19.6049 12.4433 19.6404 13.3241 19.1431L13.4973 19.0366L20.8879 14.0988C21.0842 14.6902 21.0256 15.3616 20.6703 15.9314Z" fill="inherit"/>
</svg>
