<svg width="16" height="9" viewBox="0 0 16 9" fill="none" xmlns="http://www.w3.org/2000/svg">
<path d="M0.29809 5.05409C0.130758 5.27361 0.172965 5.5872 0.392382 5.75467L3.57595 8.18446C3.78514 8.34412 4.08229 8.3143 4.25559 8.11625L9.96486 1.59137C10.1468 1.38345 10.1256 1.0674 9.91758 0.88561L9.41559 0.446952C9.20774 0.265332 8.89205 0.286483 8.71029 0.494205L4.02727 5.84624C3.85397 6.04429 3.55681 6.07411 3.34761 5.91444L1.40287 4.43006C1.18326 4.26244 0.869336 4.30469 0.701856 4.5244L0.29809 5.05409ZM15.7982 1.59137C15.9801 1.38345 15.9589 1.0674 15.7509 0.885607L15.2489 0.446955C15.0411 0.265334 14.7254 0.286487 14.5436 0.494212L9.82386 5.88833C9.67917 6.05371 9.42994 6.07589 9.2583 5.93867C9.08119 5.79708 8.82284 5.82581 8.68116 6.00285L8.20842 6.59359C8.03587 6.80921 8.0708 7.12387 8.28641 7.2964L9.3949 8.18339C9.60384 8.35058 9.90736 8.32363 10.0836 8.12224L15.7982 1.59137Z" fill="#595959"/>
</svg>
