<svg width="40" height="40" viewBox="0 0 40 40" fill="none" xmlns="http://www.w3.org/2000/svg">
<path d="M19.9999 3.3335C29.2047 3.3335 36.6666 10.7954 36.6666 20.0002C36.6666 29.2049 29.2047 36.6668 19.9999 36.6668C10.7952 36.6668 3.33325 29.2049 3.33325 20.0002C3.33325 10.7954 10.7952 3.3335 19.9999 3.3335ZM19.9999 5.8335C12.1759 5.8335 5.83325 12.1761 5.83325 20.0002C5.83325 27.8242 12.1759 34.1668 19.9999 34.1668C27.824 34.1668 34.1666 27.8242 34.1666 20.0002C34.1666 12.1761 27.824 5.8335 19.9999 5.8335ZM17.9166 22.3991L25.366 14.9496C25.8542 14.4615 26.6456 14.4615 27.1338 14.9496C27.5776 15.3934 27.6179 16.0878 27.2548 16.5772L27.1338 16.7174L18.8005 25.0507C18.3567 25.4945 17.6623 25.5348 17.1729 25.1717L17.0327 25.0507L12.866 20.884C12.3779 20.3959 12.3779 19.6044 12.866 19.1163C13.3098 18.6725 14.0043 18.6322 14.4936 18.9952L14.6338 19.1163L17.9166 22.3991L25.366 14.9496L17.9166 22.3991Z" fill="#12B654"/>
</svg>
