<svg width="18" height="18" viewBox="0 0 18 18" fill="none" xmlns="http://www.w3.org/2000/svg">
<path d="M9 1.50098C10.2813 1.50098 11.4084 2.31185 11.8285 3.50079C11.9665 3.89134 11.7617 4.31981 11.3712 4.45781C11.0085 4.58595 10.6132 4.41857 10.4481 4.08131L10.4142 4.00053C10.2043 3.4065 9.64061 3.00098 9 3.00098C8.20964 3.00098 7.56212 3.61257 7.50489 4.38831L7.50078 4.5002L7.50075 5.99948L13.3125 6.0002C14.2056 6.0002 14.9367 6.69407 14.9961 7.57216L15 7.6877V14.8099C15 15.7031 14.3061 16.4341 13.428 16.4935L13.3125 16.4974H4.6875C3.79435 16.4974 3.06327 15.8035 3.00389 14.9254L3 14.8099V7.6877C3 6.79455 3.69387 6.06347 4.57196 6.00409L4.6875 6.0002L6.00075 5.99948L6.00078 4.5002C6.00078 2.84377 7.34358 1.50098 9 1.50098ZM9 10.1248C8.37925 10.1248 7.87604 10.6281 7.87604 11.2488C7.87604 11.8696 8.37925 12.3728 9 12.3728C9.62075 12.3728 10.124 11.8696 10.124 11.2488C10.124 10.6281 9.62075 10.1248 9 10.1248Z" fill="#949494"/>
</svg>
