<svg width="14" height="18" viewBox="0 0 14 18" fill="none" xmlns="http://www.w3.org/2000/svg">
<path d="M11.7951 10.667C12.8301 10.667 13.6691 11.506 13.6691 12.541V13.3064C13.6691 13.7842 13.5198 14.2501 13.242 14.6388C11.9537 16.4415 9.85016 17.3346 6.99993 17.3346C4.14912 17.3346 2.04665 16.4411 0.761519 14.6375C0.484883 14.2493 0.336212 13.7844 0.336212 13.3077V12.541C0.336212 11.506 1.17526 10.667 2.21028 10.667H11.7951ZM6.99993 0.670898C9.30111 0.670898 11.1666 2.53638 11.1666 4.83757C11.1666 7.13875 9.30111 9.00423 6.99993 9.00423C4.69874 9.00423 2.83326 7.13875 2.83326 4.83757C2.83326 2.53638 4.69874 0.670898 6.99993 0.670898Z" fill="#595959"/>
</svg>
