<svg width="20" height="20" viewBox="0 0 20 20" fill="none" xmlns="http://www.w3.org/2000/svg">
<path d="M10 14C12.2091 14 14 12.2091 14 10C14 7.79086 12.2091 6 10 6C7.79086 6 6 7.79086 6 10C6 12.2091 7.79086 14 10 14Z" stroke="#2084E1" stroke-width="1.5" stroke-linecap="round" stroke-linejoin="round"/>
<path d="M10 8V10L11 11" stroke="#2084E1" stroke-width="1.5" stroke-linecap="round" stroke-linejoin="round"/>
<path d="M12.9867 13.4045L12.7547 15.8418C12.7248 16.1591 12.572 16.4542 12.3265 16.6686C12.081 16.883 11.7607 17.0013 11.4287 17H8.55801C8.22607 17.0013 7.90571 16.883 7.6602 16.6686C7.4147 16.4542 7.26192 16.1591 7.23204 15.8418L7 13.4045M7.00663 6.59546L7.23867 4.15819C7.26845 3.84197 7.42028 3.54785 7.66439 3.33356C7.90849 3.11928 8.22722 3.00031 8.55801 3.00001H11.442C11.7739 2.99872 12.0943 3.11697 12.3398 3.33141C12.5853 3.54585 12.7381 3.84087 12.768 4.15819L13 6.59546" stroke="#2084E1" stroke-width="1.5" stroke-linecap="round" stroke-linejoin="round"/>
</svg>
